<?xml version='1.0' encoding='utf-8'?>
<svg xmlns="http://www.w3.org/2000/svg" width="900" height="800" viewBox="0 0 900 800">
  <rect width="900" height="800" fill="#2D2D2D" />
  <text x="450" y="30" fill="#FFFFFF" font-family="Arial, sans-serif" font-size="18" font-weight="bold" text-anchor="middle">Add to Cart Workflow (CORRECTED)</text>
  
  <!-- Step 1: Custom Button Event -->
  <rect x="253" y="63" width="400" height="100" rx="8" fill="#000000" opacity="0.3" />
  <rect x="250" y="60" width="400" height="100" rx="8" fill="none" stroke="#000000" stroke-width="2" />
  <rect x="250" y="60" width="400" height="32" rx="8" fill="#8E44AD" />
  <text x="260" y="82" fill="#FFFFFF" font-family="Arial, sans-serif" font-size="14" font-weight="bold">CUSTOM EVENT: On Add To Cart Button (UMG)</text>
  <rect x="250" y="92" width="400" height="68" fill="#1E1E1E" />
  <circle cx="645" cy="117" r="6" fill="#FFFFFF" stroke="#000000" stroke-width="1.5" />
  <text x="630" y="121" fill="#FFFFFF" font-family="Arial, sans-serif" font-size="12" text-anchor="end">Exec</text>
  <circle cx="645" cy="137" r="6" fill="#00FFFF" stroke="#000000" stroke-width="1.5" />
  <text x="630" y="141" fill="#FFFFFF" font-family="Arial, sans-serif" font-size="12" text-anchor="end">Item</text>
  <circle cx="645" cy="157" r="6" fill="#00FF00" stroke="#000000" stroke-width="1.5" />
  <text x="630" y="161" fill="#FFFFFF" font-family="Arial, sans-serif" font-size="12" text-anchor="end">Quantity</text>
  
  <!-- Step 2: Branch - Stock Check -->
  <rect x="253" y="203" width="400" height="120" rx="8" fill="#000000" opacity="0.3" />
  <rect x="250" y="200" width="400" height="120" rx="8" fill="none" stroke="#000000" stroke-width="2" />
  <rect x="250" y="200" width="400" height="32" rx="8" fill="#FFFFFF" />
  <text x="260" y="222" fill="#000000" font-family="Arial, sans-serif" font-size="14" font-weight="bold">BRANCH: Is Item In Stock?</text>
  <rect x="250" y="232" width="400" height="88" fill="#1E1E1E" />
  <circle cx="255" cy="252" r="6" fill="#FFFFFF" stroke="#000000" stroke-width="1.5" />
  <text x="270" y="256" fill="#FFFFFF" font-family="Arial, sans-serif" font-size="12" text-anchor="start">Exec</text>
  <circle cx="255" cy="272" r="6" fill="#DC143C" stroke="#000000" stroke-width="1.5" />
  <text x="270" y="276" fill="#FFFFFF" font-family="Arial, sans-serif" font-size="12" text-anchor="start">Stock &gt;= Quantity</text>
  <circle cx="645" cy="252" r="6" fill="#FFFFFF" stroke="#000000" stroke-width="1.5" />
  <text x="630" y="256" fill="#FFFFFF" font-family="Arial, sans-serif" font-size="12" text-anchor="end">True</text>
  <circle cx="645" cy="272" r="6" fill="#FFFFFF" stroke="#000000" stroke-width="1.5" />
  <text x="630" y="276" fill="#FFFFFF" font-family="Arial, sans-serif" font-size="12" text-anchor="end">False</text>
  
  <!-- Step 3: Branch - Afford Check -->
  <rect x="253" y="363" width="400" height="120" rx="8" fill="#000000" opacity="0.3" />
  <rect x="250" y="360" width="400" height="120" rx="8" fill="none" stroke="#000000" stroke-width="2" />
  <rect x="250" y="360" width="400" height="32" rx="8" fill="#FFFFFF" />
  <text x="260" y="382" fill="#000000" font-family="Arial, sans-serif" font-size="14" font-weight="bold">BRANCH: Can Afford?</text>
  <rect x="250" y="392" width="400" height="88" fill="#1E1E1E" />
  <circle cx="255" cy="412" r="6" fill="#FFFFFF" stroke="#000000" stroke-width="1.5" />
  <text x="270" y="416" fill="#FFFFFF" font-family="Arial, sans-serif" font-size="12" text-anchor="start">Exec</text>
  <circle cx="255" cy="432" r="6" fill="#DC143C" stroke="#000000" stroke-width="1.5" />
  <text x="270" y="436" fill="#FFFFFF" font-family="Arial, sans-serif" font-size="12" text-anchor="start">Credits &gt;= Price</text>
  <circle cx="645" cy="412" r="6" fill="#FFFFFF" stroke="#000000" stroke-width="1.5" />
  <text x="630" y="416" fill="#FFFFFF" font-family="Arial, sans-serif" font-size="12" text-anchor="end">True</text>
  <circle cx="645" cy="432" r="6" fill="#FFFFFF" stroke="#000000" stroke-width="1.5" />
  <text x="630" y="436" fill="#FFFFFF" font-family="Arial, sans-serif" font-size="12" text-anchor="end">False</text>
  
  <!-- Step 4: Branch - Cargo Check -->
  <rect x="253" y="523" width="400" height="120" rx="8" fill="#000000" opacity="0.3" />
  <rect x="250" y="520" width="400" height="120" rx="8" fill="none" stroke="#000000" stroke-width="2" />
  <rect x="250" y="520" width="400" height="32" rx="8" fill="#FFFFFF" />
  <text x="260" y="542" fill="#000000" font-family="Arial, sans-serif" font-size="14" font-weight="bold">BRANCH: Has Cargo Space?</text>
  <rect x="250" y="552" width="400" height="88" fill="#1E1E1E" />
  <circle cx="255" cy="572" r="6" fill="#FFFFFF" stroke="#000000" stroke-width="1.5" />
  <text x="270" y="576" fill="#FFFFFF" font-family="Arial, sans-serif" font-size="12" text-anchor="start">Exec</text>
  <circle cx="255" cy="592" r="6" fill="#DC143C" stroke="#000000" stroke-width="1.5" />
  <text x="270" y="596" fill="#FFFFFF" font-family="Arial, sans-serif" font-size="12" text-anchor="start">Space &gt;= Volume</text>
  <circle cx="645" cy="572" r="6" fill="#FFFFFF" stroke="#000000" stroke-width="1.5" />
  <text x="630" y="576" fill="#FFFFFF" font-family="Arial, sans-serif" font-size="12" text-anchor="end">True</text>
  <circle cx="645" cy="592" r="6" fill="#FFFFFF" stroke="#000000" stroke-width="1.5" />
  <text x="630" y="596" fill="#FFFFFF" font-family="Arial, sans-serif" font-size="12" text-anchor="end">False</text>
  
  <!-- Step 5: Success - AddToCart Function -->
  <rect x="53" y="683" width="280" height="90" rx="8" fill="#000000" opacity="0.3" />
  <rect x="50" y="680" width="280" height="90" rx="8" fill="none" stroke="#000000" stroke-width="2" />
  <rect x="50" y="680" width="280" height="32" rx="8" fill="#1B4F72" />
  <text x="60" y="702" fill="#FFFFFF" font-family="Arial, sans-serif" font-size="14" font-weight="bold">FUNCTION: AddToCart</text>
  <rect x="50" y="712" width="280" height="58" fill="#1E1E1E" />
  <circle cx="55" cy="732" r="6" fill="#FFFFFF" stroke="#000000" stroke-width="1.5" />
  <text x="70" y="736" fill="#FFFFFF" font-family="Arial, sans-serif" font-size="12" text-anchor="start">Exec</text>
  <text x="60" y="760" fill="#AAAAAA" font-family="Arial, sans-serif" font-size="11" font-style="italic">C++ Function - Adds item to cart</text>
  
  <!-- Step 6: Error - Show Error Messages -->
  <rect x="593" y="683" width="250" height="60" rx="8" fill="#000000" opacity="0.3" />
  <rect x="590" y="680" width="250" height="60" rx="8" fill="none" stroke="#000000" stroke-width="2" />
  <rect x="590" y="680" width="250" height="32" rx="8" fill="#1B4F72" />
  <text x="600" y="702" fill="#FFFFFF" font-family="Arial, sans-serif" font-size="14" font-weight="bold">Show Error Message</text>
  <rect x="590" y="712" width="250" height="28" fill="#1E1E1E" />
  <circle cx="595" cy="732" r="6" fill="#FFFFFF" stroke="#000000" stroke-width="1.5" />
  <text x="610" y="736" fill="#FFFFFF" font-family="Arial, sans-serif" font-size="12" text-anchor="start">Exec</text>

  <!-- Connection wires -->
  <path d="M 650 117 C 450.0 117, 450.0 252, 250 252" stroke="#FFFFFF" stroke-width="3" fill="none" opacity="0.8" />
  <path d="M 650 252 C 450.0 252, 450.0 412, 250 412" stroke="#FFFFFF" stroke-width="3" fill="none" opacity="0.8" />
  <path d="M 650 272 C 715.0 272, 715.0 732, 590 732" stroke="#FFFFFF" stroke-width="3" fill="none" opacity="0.8" />
  <path d="M 650 412 C 450.0 412, 450.0 572, 250 572" stroke="#FFFFFF" stroke-width="3" fill="none" opacity="0.8" />
  <path d="M 650 432 C 715.0 432, 715.0 732, 590 732" stroke="#FFFFFF" stroke-width="3" fill="none" opacity="0.8" />
  <path d="M 650 572 C 375.0 572, 375.0 732, 50 732" stroke="#FFFFFF" stroke-width="3" fill="none" opacity="0.8" />
  <path d="M 650 592 C 715.0 592, 715.0 732, 590 732" stroke="#FFFFFF" stroke-width="3" fill="none" opacity="0.8" />
</svg>
