<?xml version='1.0' encoding='utf-8'?>
<svg xmlns="http://www.w3.org/2000/svg" width="900" height="700" viewBox="0 0 900 700">
  <rect width="900" height="700" fill="#2D2D2D" />
  <rect x="303" y="23" width="300" height="100" rx="8" fill="#000000" opacity="0.3" />
  <rect x="300" y="20" width="300" height="100" rx="8" fill="none" stroke="#000000" stroke-width="2" />
  <rect x="300" y="20" width="300" height="32" rx="8" fill="#C80000" />
  <text x="310" y="42" fill="#FFFFFF" font-family="Arial, sans-serif" font-size="14" font-weight="bold">EVENT: Add to Cart</text>
  <rect x="300" y="52" width="300" height="68" fill="#1E1E1E" />
  <circle cx="575" cy="77" r="6" fill="#FFFFFF" stroke="#000000" stroke-width="1.5" />
  <text x="560" y="81" fill="#FFFFFF" font-family="Arial, sans-serif" font-size="12" text-anchor="end" />
  <circle cx="575" cy="97" r="6" fill="#00FFFF" stroke="#000000" stroke-width="1.5" />
  <text x="560" y="101" fill="#FFFFFF" font-family="Arial, sans-serif" font-size="12" text-anchor="end">Item</text>
  <circle cx="575" cy="117" r="6" fill="#00FF00" stroke="#000000" stroke-width="1.5" />
  <text x="560" y="121" fill="#FFFFFF" font-family="Arial, sans-serif" font-size="12" text-anchor="end">Quantity</text>
  <rect x="253" y="163" width="400" height="120" rx="8" fill="#000000" opacity="0.3" />
  <rect x="250" y="160" width="400" height="120" rx="8" fill="none" stroke="#000000" stroke-width="2" />
  <rect x="250" y="160" width="400" height="32" rx="8" fill="#FFFFFF" />
  <text x="260" y="182" fill="#FFFFFF" font-family="Arial, sans-serif" font-size="14" font-weight="bold">BRANCH: Is Item In Stock?</text>
  <rect x="250" y="192" width="400" height="88" fill="#1E1E1E" />
  <circle cx="255" cy="212" r="6" fill="#FFFFFF" stroke="#000000" stroke-width="1.5" />
  <text x="270" y="216" fill="#FFFFFF" font-family="Arial, sans-serif" font-size="12" text-anchor="start">Exec</text>
  <circle cx="255" cy="232" r="6" fill="#DC143C" stroke="#000000" stroke-width="1.5" />
  <text x="270" y="236" fill="#FFFFFF" font-family="Arial, sans-serif" font-size="12" text-anchor="start">Condition</text>
  <circle cx="645" cy="212" r="6" fill="#FFFFFF" stroke="#000000" stroke-width="1.5" />
  <text x="630" y="216" fill="#FFFFFF" font-family="Arial, sans-serif" font-size="12" text-anchor="end">True</text>
  <circle cx="645" cy="232" r="6" fill="#FFFFFF" stroke="#000000" stroke-width="1.5" />
  <text x="630" y="236" fill="#FFFFFF" font-family="Arial, sans-serif" font-size="12" text-anchor="end">False</text>
  <rect x="253" y="323" width="400" height="120" rx="8" fill="#000000" opacity="0.3" />
  <rect x="250" y="320" width="400" height="120" rx="8" fill="none" stroke="#000000" stroke-width="2" />
  <rect x="250" y="320" width="400" height="32" rx="8" fill="#FFFFFF" />
  <text x="260" y="342" fill="#FFFFFF" font-family="Arial, sans-serif" font-size="14" font-weight="bold">BRANCH: Can Afford?</text>
  <rect x="250" y="352" width="400" height="88" fill="#1E1E1E" />
  <circle cx="255" cy="372" r="6" fill="#FFFFFF" stroke="#000000" stroke-width="1.5" />
  <text x="270" y="376" fill="#FFFFFF" font-family="Arial, sans-serif" font-size="12" text-anchor="start">Exec</text>
  <circle cx="255" cy="392" r="6" fill="#DC143C" stroke="#000000" stroke-width="1.5" />
  <text x="270" y="396" fill="#FFFFFF" font-family="Arial, sans-serif" font-size="12" text-anchor="start">Condition</text>
  <circle cx="645" cy="372" r="6" fill="#FFFFFF" stroke="#000000" stroke-width="1.5" />
  <text x="630" y="376" fill="#FFFFFF" font-family="Arial, sans-serif" font-size="12" text-anchor="end">True</text>
  <circle cx="645" cy="392" r="6" fill="#FFFFFF" stroke="#000000" stroke-width="1.5" />
  <text x="630" y="396" fill="#FFFFFF" font-family="Arial, sans-serif" font-size="12" text-anchor="end">False</text>
  <rect x="253" y="483" width="400" height="120" rx="8" fill="#000000" opacity="0.3" />
  <rect x="250" y="480" width="400" height="120" rx="8" fill="none" stroke="#000000" stroke-width="2" />
  <rect x="250" y="480" width="400" height="32" rx="8" fill="#FFFFFF" />
  <text x="260" y="502" fill="#FFFFFF" font-family="Arial, sans-serif" font-size="14" font-weight="bold">BRANCH: Has Cargo Space?</text>
  <rect x="250" y="512" width="400" height="88" fill="#1E1E1E" />
  <circle cx="255" cy="532" r="6" fill="#FFFFFF" stroke="#000000" stroke-width="1.5" />
  <text x="270" y="536" fill="#FFFFFF" font-family="Arial, sans-serif" font-size="12" text-anchor="start">Exec</text>
  <circle cx="255" cy="552" r="6" fill="#DC143C" stroke="#000000" stroke-width="1.5" />
  <text x="270" y="556" fill="#FFFFFF" font-family="Arial, sans-serif" font-size="12" text-anchor="start">Condition</text>
  <circle cx="645" cy="532" r="6" fill="#FFFFFF" stroke="#000000" stroke-width="1.5" />
  <text x="630" y="536" fill="#FFFFFF" font-family="Arial, sans-serif" font-size="12" text-anchor="end">True</text>
  <circle cx="645" cy="552" r="6" fill="#FFFFFF" stroke="#000000" stroke-width="1.5" />
  <text x="630" y="556" fill="#FFFFFF" font-family="Arial, sans-serif" font-size="12" text-anchor="end">False</text>
  <rect x="53" y="633" width="250" height="60" rx="8" fill="#000000" opacity="0.3" />
  <rect x="50" y="630" width="250" height="60" rx="8" fill="none" stroke="#000000" stroke-width="2" />
  <rect x="50" y="630" width="250" height="32" rx="8" fill="#1B4F72" />
  <text x="60" y="652" fill="#FFFFFF" font-family="Arial, sans-serif" font-size="14" font-weight="bold">Add to Cart</text>
  <rect x="50" y="662" width="250" height="28" fill="#1E1E1E" />
  <circle cx="55" cy="682" r="6" fill="#FFFFFF" stroke="#000000" stroke-width="1.5" />
  <text x="70" y="686" fill="#FFFFFF" font-family="Arial, sans-serif" font-size="12" text-anchor="start">Exec</text>
  <rect x="323" y="633" width="250" height="60" rx="8" fill="#000000" opacity="0.3" />
  <rect x="320" y="630" width="250" height="60" rx="8" fill="none" stroke="#000000" stroke-width="2" />
  <rect x="320" y="630" width="250" height="32" rx="8" fill="#1B4F72" />
  <text x="330" y="652" fill="#FFFFFF" font-family="Arial, sans-serif" font-size="14" font-weight="bold">Show Error</text>
  <rect x="320" y="662" width="250" height="28" fill="#1E1E1E" />
  <circle cx="325" cy="682" r="6" fill="#FFFFFF" stroke="#000000" stroke-width="1.5" />
  <text x="340" y="686" fill="#FFFFFF" font-family="Arial, sans-serif" font-size="12" text-anchor="start">Exec</text>
  <rect x="593" y="633" width="250" height="60" rx="8" fill="#000000" opacity="0.3" />
  <rect x="590" y="630" width="250" height="60" rx="8" fill="none" stroke="#000000" stroke-width="2" />
  <rect x="590" y="630" width="250" height="32" rx="8" fill="#1B4F72" />
  <text x="600" y="652" fill="#FFFFFF" font-family="Arial, sans-serif" font-size="14" font-weight="bold">Show Error</text>
  <rect x="590" y="662" width="250" height="28" fill="#1E1E1E" />
  <circle cx="595" cy="682" r="6" fill="#FFFFFF" stroke="#000000" stroke-width="1.5" />
  <text x="610" y="686" fill="#FFFFFF" font-family="Arial, sans-serif" font-size="12" text-anchor="start">Exec</text>
  <path d="M 580 77 C 415.0 77, 415.0 212, 250 212" stroke="#FFFFFF" stroke-width="3" fill="none" opacity="0.8" />
  <path d="M 650 212 C 450.0 212, 450.0 372, 250 372" stroke="#FFFFFF" stroke-width="3" fill="none" opacity="0.8" />
  <path d="M 650 232 C 547.5 232, 547.5 682, 445 682" stroke="#FFFFFF" stroke-width="3" fill="none" opacity="0.8" />
  <path d="M 650 372 C 450.0 372, 450.0 532, 250 532" stroke="#FFFFFF" stroke-width="3" fill="none" opacity="0.8" />
  <path d="M 650 392 C 547.5 392, 547.5 682, 445 682" stroke="#FFFFFF" stroke-width="3" fill="none" opacity="0.8" />
  <path d="M 650 532 C 412.5 532, 412.5 682, 175 682" stroke="#FFFFFF" stroke-width="3" fill="none" opacity="0.8" />
  <path d="M 650 552 C 682.5 552, 682.5 682, 715 682" stroke="#FFFFFF" stroke-width="3" fill="none" opacity="0.8" />
</svg>