<?xml version='1.0' encoding='utf-8'?>
<svg xmlns="http://www.w3.org/2000/svg" width="800" height="400" viewBox="0 0 800 400">
  <rect width="800" height="400" fill="#2D2D2D" />
  <rect x="53" y="23" width="300" height="80" rx="8" fill="#000000" opacity="0.3" />
  <rect x="50" y="20" width="300" height="80" rx="8" fill="none" stroke="#000000" stroke-width="2" />
  <rect x="50" y="20" width="300" height="32" rx="8" fill="#C80000" />
  <text x="60" y="42" fill="#FFFFFF" font-family="Arial, sans-serif" font-size="14" font-weight="bold">EVENT: Buy Button Clicked</text>
  <rect x="50" y="52" width="300" height="48" fill="#1E1E1E" />
  <circle cx="325" cy="77" r="6" fill="#FFFFFF" stroke="#000000" stroke-width="1.5" />
  <text x="310" y="81" fill="#FFFFFF" font-family="Arial, sans-serif" font-size="12" text-anchor="end" />
  <rect x="453" y="23" width="300" height="120" rx="8" fill="#000000" opacity="0.3" />
  <rect x="450" y="20" width="300" height="120" rx="8" fill="none" stroke="#000000" stroke-width="2" />
  <rect x="450" y="20" width="300" height="32" rx="8" fill="#1B4F72" />
  <text x="460" y="42" fill="#FFFFFF" font-family="Arial, sans-serif" font-size="14" font-weight="bold">ToggleBuySellView</text>
  <rect x="450" y="52" width="300" height="88" fill="#1E1E1E" />
  <circle cx="455" cy="72" r="6" fill="#FFFFFF" stroke="#000000" stroke-width="1.5" />
  <text x="470" y="76" fill="#FFFFFF" font-family="Arial, sans-serif" font-size="12" text-anchor="start">Exec</text>
  <circle cx="455" cy="92" r="6" fill="#00FFFF" stroke="#000000" stroke-width="1.5" />
  <text x="470" y="96" fill="#FFFFFF" font-family="Arial, sans-serif" font-size="12" text-anchor="start">Target</text>
  <circle cx="745" cy="72" r="6" fill="#FFFFFF" stroke="#000000" stroke-width="1.5" />
  <text x="730" y="76" fill="#FFFFFF" font-family="Arial, sans-serif" font-size="12" text-anchor="end" />
  <path d="M 330 77 C 390.0 77, 390.0 72, 450 72" stroke="#FFFFFF" stroke-width="3" fill="none" opacity="0.8" />
  <rect x="53" y="173" width="300" height="80" rx="8" fill="#000000" opacity="0.3" />
  <rect x="50" y="170" width="300" height="80" rx="8" fill="none" stroke="#000000" stroke-width="2" />
  <rect x="50" y="170" width="300" height="32" rx="8" fill="#C80000" />
  <text x="60" y="192" fill="#FFFFFF" font-family="Arial, sans-serif" font-size="14" font-weight="bold">EVENT: Sell Button Clicked</text>
  <rect x="50" y="202" width="300" height="48" fill="#1E1E1E" />
  <circle cx="325" cy="227" r="6" fill="#FFFFFF" stroke="#000000" stroke-width="1.5" />
  <text x="310" y="231" fill="#FFFFFF" font-family="Arial, sans-serif" font-size="12" text-anchor="end" />
  <rect x="453" y="173" width="300" height="120" rx="8" fill="#000000" opacity="0.3" />
  <rect x="450" y="170" width="300" height="120" rx="8" fill="none" stroke="#000000" stroke-width="2" />
  <rect x="450" y="170" width="300" height="32" rx="8" fill="#1B4F72" />
  <text x="460" y="192" fill="#FFFFFF" font-family="Arial, sans-serif" font-size="14" font-weight="bold">ToggleBuySellView</text>
  <rect x="450" y="202" width="300" height="88" fill="#1E1E1E" />
  <circle cx="455" cy="222" r="6" fill="#FFFFFF" stroke="#000000" stroke-width="1.5" />
  <text x="470" y="226" fill="#FFFFFF" font-family="Arial, sans-serif" font-size="12" text-anchor="start">Exec</text>
  <circle cx="455" cy="242" r="6" fill="#00FFFF" stroke="#000000" stroke-width="1.5" />
  <text x="470" y="246" fill="#FFFFFF" font-family="Arial, sans-serif" font-size="12" text-anchor="start">Target</text>
  <circle cx="745" cy="222" r="6" fill="#FFFFFF" stroke="#000000" stroke-width="1.5" />
  <text x="730" y="226" fill="#FFFFFF" font-family="Arial, sans-serif" font-size="12" text-anchor="end" />
  <path d="M 330 227 C 390.0 227, 390.0 222, 450 222" stroke="#FFFFFF" stroke-width="3" fill="none" opacity="0.8" />
  <text x="400" y="350" fill="#FFFFFF" font-family="Arial, sans-serif" font-size="14" text-anchor="middle" font-style="italic">Note: Same function toggles between Buy and Sell modes</text>
</svg>