<?xml version='1.0' encoding='utf-8'?>
<svg xmlns="http://www.w3.org/2000/svg" width="800" height="600" viewBox="0 0 800 600">
  <rect width="800" height="600" fill="#2D2D2D" />
  <rect x="253" y="23" width="300" height="80" rx="8" fill="#000000" opacity="0.3" />
  <rect x="250" y="20" width="300" height="80" rx="8" fill="none" stroke="#000000" stroke-width="2" />
  <rect x="250" y="20" width="300" height="32" rx="8" fill="#C80000" />
  <text x="260" y="42" fill="#FFFFFF" font-family="Arial, sans-serif" font-size="14" font-weight="bold">EVENT: OnBuyButtonClicked</text>
  <rect x="250" y="52" width="300" height="48" fill="#1E1E1E" />
  <circle cx="525" cy="77" r="6" fill="#FFFFFF" stroke="#000000" stroke-width="1.5" />
  <text x="510" y="81" fill="#FFFFFF" font-family="Arial, sans-serif" font-size="12" text-anchor="end" />
  <rect x="203" y="143" width="400" height="140" rx="8" fill="#000000" opacity="0.3" />
  <rect x="200" y="140" width="400" height="140" rx="8" fill="none" stroke="#000000" stroke-width="2" />
  <rect x="200" y="140" width="400" height="32" rx="8" fill="#1B4F72" />
  <text x="210" y="162" fill="#FFFFFF" font-family="Arial, sans-serif" font-size="14" font-weight="bold">Get Item Price</text>
  <rect x="200" y="172" width="400" height="108" fill="#1E1E1E" />
  <circle cx="205" cy="192" r="6" fill="#FFFFFF" stroke="#000000" stroke-width="1.5" />
  <text x="220" y="196" fill="#FFFFFF" font-family="Arial, sans-serif" font-size="12" text-anchor="start">Exec</text>
  <circle cx="205" cy="212" r="6" fill="#00FFFF" stroke="#000000" stroke-width="1.5" />
  <text x="220" y="216" fill="#FFFFFF" font-family="Arial, sans-serif" font-size="12" text-anchor="start">Item</text>
  <circle cx="205" cy="232" r="6" fill="#00FF00" stroke="#000000" stroke-width="1.5" />
  <text x="220" y="236" fill="#FFFFFF" font-family="Arial, sans-serif" font-size="12" text-anchor="start">Quantity</text>
  <circle cx="595" cy="192" r="6" fill="#FFFFFF" stroke="#000000" stroke-width="1.5" />
  <text x="580" y="196" fill="#FFFFFF" font-family="Arial, sans-serif" font-size="12" text-anchor="end" />
  <circle cx="595" cy="212" r="6" fill="#00FF00" stroke="#000000" stroke-width="1.5" />
  <text x="580" y="216" fill="#FFFFFF" font-family="Arial, sans-serif" font-size="12" text-anchor="end">Total Price</text>
  <rect x="233" y="323" width="340" height="120" rx="8" fill="#000000" opacity="0.3" />
  <rect x="230" y="320" width="340" height="120" rx="8" fill="none" stroke="#000000" stroke-width="2" />
  <rect x="230" y="320" width="340" height="32" rx="8" fill="#FFFFFF" />
  <text x="240" y="342" fill="#FFFFFF" font-family="Arial, sans-serif" font-size="14" font-weight="bold">BRANCH: Can Afford?</text>
  <rect x="230" y="352" width="340" height="88" fill="#1E1E1E" />
  <circle cx="235" cy="372" r="6" fill="#FFFFFF" stroke="#000000" stroke-width="1.5" />
  <text x="250" y="376" fill="#FFFFFF" font-family="Arial, sans-serif" font-size="12" text-anchor="start">Exec</text>
  <circle cx="235" cy="392" r="6" fill="#DC143C" stroke="#000000" stroke-width="1.5" />
  <text x="250" y="396" fill="#FFFFFF" font-family="Arial, sans-serif" font-size="12" text-anchor="start">Condition</text>
  <circle cx="565" cy="372" r="6" fill="#FFFFFF" stroke="#000000" stroke-width="1.5" />
  <text x="550" y="376" fill="#FFFFFF" font-family="Arial, sans-serif" font-size="12" text-anchor="end">True</text>
  <circle cx="565" cy="392" r="6" fill="#FFFFFF" stroke="#000000" stroke-width="1.5" />
  <text x="550" y="396" fill="#FFFFFF" font-family="Arial, sans-serif" font-size="12" text-anchor="end">False</text>
  <rect x="53" y="483" width="280" height="80" rx="8" fill="#000000" opacity="0.3" />
  <rect x="50" y="480" width="280" height="80" rx="8" fill="none" stroke="#000000" stroke-width="2" />
  <rect x="50" y="480" width="280" height="32" rx="8" fill="#1B4F72" />
  <text x="60" y="502" fill="#FFFFFF" font-family="Arial, sans-serif" font-size="14" font-weight="bold">Execute Purchase</text>
  <rect x="50" y="512" width="280" height="48" fill="#1E1E1E" />
  <circle cx="55" cy="537" r="6" fill="#FFFFFF" stroke="#000000" stroke-width="1.5" />
  <text x="70" y="541" fill="#FFFFFF" font-family="Arial, sans-serif" font-size="12" text-anchor="start">Exec</text>
  <rect x="473" y="483" width="280" height="80" rx="8" fill="#000000" opacity="0.3" />
  <rect x="470" y="480" width="280" height="80" rx="8" fill="none" stroke="#000000" stroke-width="2" />
  <rect x="470" y="480" width="280" height="32" rx="8" fill="#1B4F72" />
  <text x="480" y="502" fill="#FFFFFF" font-family="Arial, sans-serif" font-size="14" font-weight="bold">Show Error</text>
  <rect x="470" y="512" width="280" height="48" fill="#1E1E1E" />
  <circle cx="475" cy="537" r="6" fill="#FFFFFF" stroke="#000000" stroke-width="1.5" />
  <text x="490" y="541" fill="#FFFFFF" font-family="Arial, sans-serif" font-size="12" text-anchor="start">Exec</text>
  <path d="M 530 77 C 365.0 77, 365.0 192, 200 192" stroke="#FFFFFF" stroke-width="3" fill="none" opacity="0.8" />
  <path d="M 600 192 C 415.0 192, 415.0 372, 230 372" stroke="#FFFFFF" stroke-width="3" fill="none" opacity="0.8" />
  <path d="M 570 372 C 380.0 372, 380.0 537, 190 537" stroke="#FFFFFF" stroke-width="3" fill="none" opacity="0.8" />
  <path d="M 570 392 C 520.0 392, 520.0 537, 470 537" stroke="#FFFFFF" stroke-width="3" fill="none" opacity="0.8" />
</svg>