<?xml version='1.0' encoding='utf-8'?>
<svg xmlns="http://www.w3.org/2000/svg" width="950" height="700" viewBox="0 0 950 700">
  <rect width="950" height="700" fill="#2D2D2D" />
  <text x="475" y="30" fill="#FFFFFF" font-family="Arial, sans-serif" font-size="18" font-weight="bold" text-anchor="middle">BP_SpaceStation - Dock Ship Function</text>
  <rect x="53" y="63" width="380" height="120" rx="8" fill="#000000" opacity="0.3" />
  <rect x="50" y="60" width="380" height="120" rx="8" fill="none" stroke="#000000" stroke-width="2" />
  <rect x="50" y="60" width="380" height="32" rx="8" fill="#1B4F72" />
  <text x="60" y="82" fill="#FFFFFF" font-family="Arial, sans-serif" font-size="14" font-weight="bold">FUNCTION: Dock Ship</text>
  <rect x="50" y="92" width="380" height="88" fill="#1E1E1E" />
  <circle cx="55" cy="107" r="6" fill="#FFFFFF" stroke="#000000" stroke-width="1.5" />
  <text x="70" y="111" fill="#FFFFFF" font-family="Arial, sans-serif" font-size="12" text-anchor="start">Exec</text>
  <circle cx="55" cy="127" r="6" fill="#00FFFF" stroke="#000000" stroke-width="1.5" />
  <text x="70" y="131" fill="#FFFFFF" font-family="Arial, sans-serif" font-size="12" text-anchor="start">Ship: ASpaceship</text>
  <circle cx="55" cy="147" r="6" fill="#00FF00" stroke="#000000" stroke-width="1.5" />
  <text x="70" y="151" fill="#FFFFFF" font-family="Arial, sans-serif" font-size="12" text-anchor="start">Docking Point Index</text>
  <rect x="483" y="63" width="400" height="140" rx="8" fill="#000000" opacity="0.3" />
  <rect x="480" y="60" width="400" height="140" rx="8" fill="none" stroke="#000000" stroke-width="2" />
  <rect x="480" y="60" width="400" height="32" rx="8" fill="#1B4F72" />
  <text x="490" y="82" fill="#FFFFFF" font-family="Arial, sans-serif" font-size="14" font-weight="bold">Validate Docking</text>
  <rect x="480" y="92" width="400" height="108" fill="#1E1E1E" />
  <circle cx="485" cy="107" r="6" fill="#FFFFFF" stroke="#000000" stroke-width="1.5" />
  <text x="500" y="111" fill="#FFFFFF" font-family="Arial, sans-serif" font-size="12" text-anchor="start">Exec</text>
  <circle cx="485" cy="127" r="6" fill="#00FFFF" stroke="#000000" stroke-width="1.5" />
  <text x="500" y="131" fill="#FFFFFF" font-family="Arial, sans-serif" font-size="12" text-anchor="start">Ship</text>
  <circle cx="485" cy="147" r="6" fill="#00FF00" stroke="#000000" stroke-width="1.5" />
  <text x="500" y="151" fill="#FFFFFF" font-family="Arial, sans-serif" font-size="12" text-anchor="start">Point Index</text>
  <circle cx="875" cy="107" r="6" fill="#FFFFFF" stroke="#000000" stroke-width="1.5" />
  <text x="860" y="111" fill="#FFFFFF" font-family="Arial, sans-serif" font-size="12" text-anchor="end" />
  <circle cx="875" cy="127" r="6" fill="#DC143C" stroke="#000000" stroke-width="1.5" />
  <text x="860" y="131" fill="#FFFFFF" font-family="Arial, sans-serif" font-size="12" text-anchor="end">Is Valid</text>
  <rect x="153" y="253" width="280" height="100" rx="8" fill="#000000" opacity="0.3" />
  <rect x="150" y="250" width="280" height="100" rx="8" fill="none" stroke="#000000" stroke-width="2" />
  <rect x="150" y="250" width="280" height="32" rx="8" fill="#FFFFFF" />
  <text x="160" y="272" fill="#000000" font-family="Arial, sans-serif" font-size="14" font-weight="bold">BRANCH: Is Valid?</text>
  <rect x="150" y="282" width="280" height="68" fill="#1E1E1E" />
  <circle cx="155" cy="297" r="6" fill="#FFFFFF" stroke="#000000" stroke-width="1.5" />
  <text x="170" y="301" fill="#FFFFFF" font-family="Arial, sans-serif" font-size="12" text-anchor="start">Exec</text>
  <circle cx="155" cy="317" r="6" fill="#DC143C" stroke="#000000" stroke-width="1.5" />
  <text x="170" y="321" fill="#FFFFFF" font-family="Arial, sans-serif" font-size="12" text-anchor="start">Condition</text>
  <circle cx="425" cy="297" r="6" fill="#FFFFFF" stroke="#000000" stroke-width="1.5" />
  <text x="410" y="301" fill="#FFFFFF" font-family="Arial, sans-serif" font-size="12" text-anchor="end">True</text>
  <circle cx="425" cy="317" r="6" fill="#FFFFFF" stroke="#000000" stroke-width="1.5" />
  <text x="410" y="321" fill="#FFFFFF" font-family="Arial, sans-serif" font-size="12" text-anchor="end">False</text>
  <rect x="483" y="213" width="400" height="100" rx="8" fill="#000000" opacity="0.3" />
  <rect x="480" y="210" width="400" height="100" rx="8" fill="none" stroke="#000000" stroke-width="2" />
  <rect x="480" y="210" width="400" height="32" rx="8" fill="#006400" />
  <text x="490" y="232" fill="#FFFFFF" font-family="Arial, sans-serif" font-size="14" font-weight="bold">Get Docking Point Transform</text>
  <rect x="480" y="242" width="400" height="68" fill="#1E1E1E" />
  <circle cx="485" cy="257" r="6" fill="#00FF00" stroke="#000000" stroke-width="1.5" />
  <text x="500" y="261" fill="#FFFFFF" font-family="Arial, sans-serif" font-size="12" text-anchor="start">Index</text>
  <circle cx="875" cy="287" r="6" fill="#4682B4" stroke="#000000" stroke-width="1.5" />
  <text x="860" y="291" fill="#FFFFFF" font-family="Arial, sans-serif" font-size="12" text-anchor="end">Transform</text>
  <rect x="483" y="333" width="400" height="120" rx="8" fill="#000000" opacity="0.3" />
  <rect x="480" y="330" width="400" height="120" rx="8" fill="none" stroke="#000000" stroke-width="2" />
  <rect x="480" y="330" width="400" height="32" rx="8" fill="#1B4F72" />
  <text x="490" y="352" fill="#FFFFFF" font-family="Arial, sans-serif" font-size="14" font-weight="bold">Move Ship To Position</text>
  <rect x="480" y="362" width="400" height="88" fill="#1E1E1E" />
  <circle cx="485" cy="377" r="6" fill="#FFFFFF" stroke="#000000" stroke-width="1.5" />
  <text x="500" y="381" fill="#FFFFFF" font-family="Arial, sans-serif" font-size="12" text-anchor="start">Exec</text>
  <circle cx="485" cy="397" r="6" fill="#00FFFF" stroke="#000000" stroke-width="1.5" />
  <text x="500" y="401" fill="#FFFFFF" font-family="Arial, sans-serif" font-size="12" text-anchor="start">Ship</text>
  <circle cx="485" cy="417" r="6" fill="#4682B4" stroke="#000000" stroke-width="1.5" />
  <text x="500" y="421" fill="#FFFFFF" font-family="Arial, sans-serif" font-size="12" text-anchor="start">Target Transform</text>
  <circle cx="875" cy="377" r="6" fill="#FFFFFF" stroke="#000000" stroke-width="1.5" />
  <text x="860" y="381" fill="#FFFFFF" font-family="Arial, sans-serif" font-size="12" text-anchor="end" />
  <rect x="53" y="493" width="380" height="100" rx="8" fill="#000000" opacity="0.3" />
  <rect x="50" y="490" width="380" height="100" rx="8" fill="none" stroke="#000000" stroke-width="2" />
  <rect x="50" y="490" width="380" height="32" rx="8" fill="#1B4F72" />
  <text x="60" y="512" fill="#FFFFFF" font-family="Arial, sans-serif" font-size="14" font-weight="bold">Disable Ship Input</text>
  <rect x="50" y="522" width="380" height="68" fill="#1E1E1E" />
  <circle cx="55" cy="537" r="6" fill="#FFFFFF" stroke="#000000" stroke-width="1.5" />
  <text x="70" y="541" fill="#FFFFFF" font-family="Arial, sans-serif" font-size="12" text-anchor="start">Exec</text>
  <circle cx="55" cy="557" r="6" fill="#00FFFF" stroke="#000000" stroke-width="1.5" />
  <text x="70" y="561" fill="#FFFFFF" font-family="Arial, sans-serif" font-size="12" text-anchor="start">Ship</text>
  <circle cx="425" cy="537" r="6" fill="#FFFFFF" stroke="#000000" stroke-width="1.5" />
  <text x="410" y="541" fill="#FFFFFF" font-family="Arial, sans-serif" font-size="12" text-anchor="end" />
  <rect x="483" y="493" width="400" height="100" rx="8" fill="#000000" opacity="0.3" />
  <rect x="480" y="490" width="400" height="100" rx="8" fill="none" stroke="#000000" stroke-width="2" />
  <rect x="480" y="490" width="400" height="32" rx="8" fill="#1B4F72" />
  <text x="490" y="512" fill="#FFFFFF" font-family="Arial, sans-serif" font-size="14" font-weight="bold">Mark Point Occupied</text>
  <rect x="480" y="522" width="400" height="68" fill="#1E1E1E" />
  <circle cx="485" cy="537" r="6" fill="#FFFFFF" stroke="#000000" stroke-width="1.5" />
  <text x="500" y="541" fill="#FFFFFF" font-family="Arial, sans-serif" font-size="12" text-anchor="start">Exec</text>
  <circle cx="485" cy="557" r="6" fill="#00FF00" stroke="#000000" stroke-width="1.5" />
  <text x="500" y="561" fill="#FFFFFF" font-family="Arial, sans-serif" font-size="12" text-anchor="start">Point Index</text>
  <circle cx="875" cy="537" r="6" fill="#FFFFFF" stroke="#000000" stroke-width="1.5" />
  <text x="860" y="541" fill="#FFFFFF" font-family="Arial, sans-serif" font-size="12" text-anchor="end" />
  <rect x="253" y="623" width="400" height="60" rx="8" fill="#000000" opacity="0.3" />
  <rect x="250" y="620" width="400" height="60" rx="8" fill="none" stroke="#000000" stroke-width="2" />
  <rect x="250" y="620" width="400" height="32" rx="8" fill="#1B4F72" />
  <text x="260" y="642" fill="#FFFFFF" font-family="Arial, sans-serif" font-size="14" font-weight="bold">Open Trading UI</text>
  <rect x="250" y="652" width="400" height="28" fill="#1E1E1E" />
  <circle cx="255" cy="667" r="6" fill="#FFFFFF" stroke="#000000" stroke-width="1.5" />
  <text x="270" y="671" fill="#FFFFFF" font-family="Arial, sans-serif" font-size="12" text-anchor="start">Exec</text>
  <path d="M 430 107 C 455.0 107, 455.0 107, 480 107" stroke="#FFFFFF" stroke-width="3" fill="none" opacity="0.8" />
  <path d="M 880 107 C 515.0 107, 515.0 297, 150 297" stroke="#FFFFFF" stroke-width="3" fill="none" opacity="0.8" />
  <path d="M 430 297 C 455.0 297, 455.0 377, 480 377" stroke="#FFFFFF" stroke-width="3" fill="none" opacity="0.8" />
  <path d="M 880 377 C 465.0 377, 465.0 537, 50 537" stroke="#FFFFFF" stroke-width="3" fill="none" opacity="0.8" />
  <path d="M 430 537 C 455.0 537, 455.0 537, 480 537" stroke="#FFFFFF" stroke-width="3" fill="none" opacity="0.8" />
  <path d="M 880 537 C 565.0 537, 565.0 667, 250 667" stroke="#FFFFFF" stroke-width="3" fill="none" opacity="0.8" />
  <text x="680" y="145" fill="#CCCCCC" font-family="Arial, sans-serif" font-size="11" text-anchor="middle">1. Validate docking</text>
  <text x="290" y="335" fill="#CCCCCC" font-family="Arial, sans-serif" font-size="11" text-anchor="middle">2. Check valid</text>
  <text x="680" y="380" fill="#CCCCCC" font-family="Arial, sans-serif" font-size="11" text-anchor="middle">3. Move ship</text>
  <text x="240" y="575" fill="#CCCCCC" font-family="Arial, sans-serif" font-size="11" text-anchor="middle">4. Disable input</text>
  <text x="680" y="575" fill="#CCCCCC" font-family="Arial, sans-serif" font-size="11" text-anchor="middle">5. Mark occupied</text>
  <text x="450" y="670" fill="#CCCCCC" font-family="Arial, sans-serif" font-size="11" text-anchor="middle">6. Open trading UI</text>
</svg>