<?xml version='1.0' encoding='utf-8'?>
<svg xmlns="http://www.w3.org/2000/svg" width="950" height="600" viewBox="0 0 950 600">
  <rect width="950" height="600" fill="#2D2D2D" />
  <text x="475" y="30" fill="#FFFFFF" font-family="Arial, sans-serif" font-size="18" font-weight="bold" text-anchor="middle">BP_SpaceStation - Docking Range Overlap Detection</text>
  <rect x="53" y="63" width="380" height="120" rx="8" fill="#000000" opacity="0.3" />
  <rect x="50" y="60" width="380" height="120" rx="8" fill="none" stroke="#000000" stroke-width="2" />
  <rect x="50" y="60" width="380" height="32" rx="8" fill="#C80000" />
  <text x="60" y="82" fill="#FFFFFF" font-family="Arial, sans-serif" font-size="14" font-weight="bold">EVENT: OnComponentBeginOverlap</text>
  <rect x="50" y="92" width="380" height="88" fill="#1E1E1E" />
  <circle cx="425" cy="107" r="6" fill="#FFFFFF" stroke="#000000" stroke-width="1.5" />
  <text x="410" y="111" fill="#FFFFFF" font-family="Arial, sans-serif" font-size="12" text-anchor="end" />
  <circle cx="425" cy="127" r="6" fill="#00FFFF" stroke="#000000" stroke-width="1.5" />
  <text x="410" y="131" fill="#FFFFFF" font-family="Arial, sans-serif" font-size="12" text-anchor="end">Overlapped Component</text>
  <circle cx="425" cy="147" r="6" fill="#00FFFF" stroke="#000000" stroke-width="1.5" />
  <text x="410" y="151" fill="#FFFFFF" font-family="Arial, sans-serif" font-size="12" text-anchor="end">Other Actor</text>
  <rect x="483" y="63" width="400" height="120" rx="8" fill="#000000" opacity="0.3" />
  <rect x="480" y="60" width="400" height="120" rx="8" fill="none" stroke="#000000" stroke-width="2" />
  <rect x="480" y="60" width="400" height="32" rx="8" fill="#1B4F72" />
  <text x="490" y="82" fill="#FFFFFF" font-family="Arial, sans-serif" font-size="14" font-weight="bold">Cast to ASpaceship</text>
  <rect x="480" y="92" width="400" height="88" fill="#1E1E1E" />
  <circle cx="485" cy="107" r="6" fill="#FFFFFF" stroke="#000000" stroke-width="1.5" />
  <text x="500" y="111" fill="#FFFFFF" font-family="Arial, sans-serif" font-size="12" text-anchor="start">Exec</text>
  <circle cx="485" cy="127" r="6" fill="#00FFFF" stroke="#000000" stroke-width="1.5" />
  <text x="500" y="131" fill="#FFFFFF" font-family="Arial, sans-serif" font-size="12" text-anchor="start">Object</text>
  <circle cx="875" cy="107" r="6" fill="#FFFFFF" stroke="#000000" stroke-width="1.5" />
  <text x="860" y="111" fill="#FFFFFF" font-family="Arial, sans-serif" font-size="12" text-anchor="end" />
  <circle cx="875" cy="127" r="6" fill="#00FFFF" stroke="#000000" stroke-width="1.5" />
  <text x="860" y="131" fill="#FFFFFF" font-family="Arial, sans-serif" font-size="12" text-anchor="end">As Spaceship</text>
  <rect x="153" y="233" width="280" height="100" rx="8" fill="#000000" opacity="0.3" />
  <rect x="150" y="230" width="280" height="100" rx="8" fill="none" stroke="#000000" stroke-width="2" />
  <rect x="150" y="230" width="280" height="32" rx="8" fill="#FFFFFF" />
  <text x="160" y="252" fill="#000000" font-family="Arial, sans-serif" font-size="14" font-weight="bold">BRANCH: Is Valid Ship?</text>
  <rect x="150" y="262" width="280" height="68" fill="#1E1E1E" />
  <circle cx="155" cy="277" r="6" fill="#FFFFFF" stroke="#000000" stroke-width="1.5" />
  <text x="170" y="281" fill="#FFFFFF" font-family="Arial, sans-serif" font-size="12" text-anchor="start">Exec</text>
  <circle cx="155" cy="297" r="6" fill="#DC143C" stroke="#000000" stroke-width="1.5" />
  <text x="170" y="301" fill="#FFFFFF" font-family="Arial, sans-serif" font-size="12" text-anchor="start">Is Valid</text>
  <circle cx="425" cy="277" r="6" fill="#FFFFFF" stroke="#000000" stroke-width="1.5" />
  <text x="410" y="281" fill="#FFFFFF" font-family="Arial, sans-serif" font-size="12" text-anchor="end">True</text>
  <circle cx="425" cy="297" r="6" fill="#FFFFFF" stroke="#000000" stroke-width="1.5" />
  <text x="410" y="301" fill="#FFFFFF" font-family="Arial, sans-serif" font-size="12" text-anchor="end">False</text>
  <rect x="483" y="233" width="400" height="100" rx="8" fill="#000000" opacity="0.3" />
  <rect x="480" y="230" width="400" height="100" rx="8" fill="none" stroke="#000000" stroke-width="2" />
  <rect x="480" y="230" width="400" height="32" rx="8" fill="#1B4F72" />
  <text x="490" y="252" fill="#FFFFFF" font-family="Arial, sans-serif" font-size="14" font-weight="bold">Is Player Controlled?</text>
  <rect x="480" y="262" width="400" height="68" fill="#1E1E1E" />
  <circle cx="485" cy="277" r="6" fill="#FFFFFF" stroke="#000000" stroke-width="1.5" />
  <text x="500" y="281" fill="#FFFFFF" font-family="Arial, sans-serif" font-size="12" text-anchor="start">Exec</text>
  <circle cx="485" cy="297" r="6" fill="#00FFFF" stroke="#000000" stroke-width="1.5" />
  <text x="500" y="301" fill="#FFFFFF" font-family="Arial, sans-serif" font-size="12" text-anchor="start">Target: Spaceship</text>
  <circle cx="875" cy="277" r="6" fill="#FFFFFF" stroke="#000000" stroke-width="1.5" />
  <text x="860" y="281" fill="#FFFFFF" font-family="Arial, sans-serif" font-size="12" text-anchor="end" />
  <circle cx="875" cy="297" r="6" fill="#DC143C" stroke="#000000" stroke-width="1.5" />
  <text x="860" y="301" fill="#FFFFFF" font-family="Arial, sans-serif" font-size="12" text-anchor="end">Is Player</text>
  <rect x="153" y="383" width="280" height="100" rx="8" fill="#000000" opacity="0.3" />
  <rect x="150" y="380" width="280" height="100" rx="8" fill="none" stroke="#000000" stroke-width="2" />
  <rect x="150" y="380" width="280" height="32" rx="8" fill="#FFFFFF" />
  <text x="160" y="402" fill="#000000" font-family="Arial, sans-serif" font-size="14" font-weight="bold">BRANCH: Is Player?</text>
  <rect x="150" y="412" width="280" height="68" fill="#1E1E1E" />
  <circle cx="155" cy="427" r="6" fill="#FFFFFF" stroke="#000000" stroke-width="1.5" />
  <text x="170" y="431" fill="#FFFFFF" font-family="Arial, sans-serif" font-size="12" text-anchor="start">Exec</text>
  <circle cx="155" cy="447" r="6" fill="#DC143C" stroke="#000000" stroke-width="1.5" />
  <text x="170" y="451" fill="#FFFFFF" font-family="Arial, sans-serif" font-size="12" text-anchor="start">Condition</text>
  <circle cx="425" cy="427" r="6" fill="#FFFFFF" stroke="#000000" stroke-width="1.5" />
  <text x="410" y="431" fill="#FFFFFF" font-family="Arial, sans-serif" font-size="12" text-anchor="end">True</text>
  <circle cx="425" cy="447" r="6" fill="#FFFFFF" stroke="#000000" stroke-width="1.5" />
  <text x="410" y="451" fill="#FFFFFF" font-family="Arial, sans-serif" font-size="12" text-anchor="end">False (Ignore)</text>
  <rect x="483" y="383" width="400" height="100" rx="8" fill="#000000" opacity="0.3" />
  <rect x="480" y="380" width="400" height="100" rx="8" fill="none" stroke="#000000" stroke-width="2" />
  <rect x="480" y="380" width="400" height="32" rx="8" fill="#1B4F72" />
  <text x="490" y="402" fill="#FFFFFF" font-family="Arial, sans-serif" font-size="14" font-weight="bold">Show Docking UI Prompt</text>
  <rect x="480" y="412" width="400" height="68" fill="#1E1E1E" />
  <circle cx="485" cy="427" r="6" fill="#FFFFFF" stroke="#000000" stroke-width="1.5" />
  <text x="500" y="431" fill="#FFFFFF" font-family="Arial, sans-serif" font-size="12" text-anchor="start">Exec</text>
  <circle cx="485" cy="447" r="6" fill="#FFB6C1" stroke="#000000" stroke-width="1.5" />
  <text x="500" y="451" fill="#FFFFFF" font-family="Arial, sans-serif" font-size="12" text-anchor="start">Message: "Press F to Dock"</text>
  <path d="M 430 107 C 455.0 107, 455.0 107, 480 107" stroke="#FFFFFF" stroke-width="3" fill="none" opacity="0.8" />
  <path d="M 880 107 C 515.0 107, 515.0 277, 150 277" stroke="#FFFFFF" stroke-width="3" fill="none" opacity="0.8" />
  <path d="M 430 277 C 455.0 277, 455.0 277, 480 277" stroke="#FFFFFF" stroke-width="3" fill="none" opacity="0.8" />
  <path d="M 880 277 C 515.0 277, 515.0 427, 150 427" stroke="#FFFFFF" stroke-width="3" fill="none" opacity="0.8" />
  <path d="M 430 427 C 455.0 427, 455.0 427, 480 427" stroke="#FFFFFF" stroke-width="3" fill="none" opacity="0.8" />
  <text x="455" y="145" fill="#CCCCCC" font-family="Arial, sans-serif" font-size="11" text-anchor="middle">1. Detect overlap</text>
  <text x="680" y="145" fill="#CCCCCC" font-family="Arial, sans-serif" font-size="11" text-anchor="middle">2. Cast to ship</text>
  <text x="290" y="315" fill="#CCCCCC" font-family="Arial, sans-serif" font-size="11" text-anchor="middle">3. Check valid</text>
  <text x="680" y="315" fill="#CCCCCC" font-family="Arial, sans-serif" font-size="11" text-anchor="middle">4. Check player</text>
  <text x="290" y="465" fill="#CCCCCC" font-family="Arial, sans-serif" font-size="11" text-anchor="middle">5. If player</text>
  <text x="680" y="465" fill="#CCCCCC" font-family="Arial, sans-serif" font-size="11" text-anchor="middle">6. Show UI</text>
</svg>