<?xml version='1.0' encoding='utf-8'?>
<svg xmlns="http://www.w3.org/2000/svg" width="1000" height="650" viewBox="0 0 1000 650">
  <rect width="1000" height="650" fill="#2D2D2D" />
  <text x="500" y="30" fill="#FFFFFF" font-family="Arial, sans-serif" font-size="20" font-weight="bold" text-anchor="middle">Docking Bay - DockingPoints Array Configuration</text>
  <rect x="50" y="80" width="900" height="120" fill="#1A1A1A" stroke="#1B4F72" stroke-width="3" rx="5" />
  <text x="70" y="110" fill="#5DADE2" font-family="Arial, sans-serif" font-size="16" font-weight="bold">STEP 1: Open Class Defaults</text>
  <text x="70" y="140" fill="#FFFFFF" font-family="Arial, sans-serif" font-size="13">In BP_DockingBay Blueprint editor, click "Class Defaults" button in toolbar</text>
  <rect x="70" y="155" width="200" height="30" fill="#2D2D2D" stroke="#555555" stroke-width="1" rx="3" />
  <text x="170" y="175" fill="#FFFFFF" font-family="Arial, sans-serif" font-size="12" text-anchor="middle">📋 Class Defaults</text>
  <rect x="50" y="230" width="900" height="370" fill="#1A1A1A" stroke="#1B4F72" stroke-width="3" rx="5" />
  <text x="70" y="260" fill="#5DADE2" font-family="Arial, sans-serif" font-size="16" font-weight="bold">STEP 2: Configure DockingPoints Array</text>
  <text x="70" y="290" fill="#FFFFFF" font-family="Arial, sans-serif" font-size="13">Find "Docking Points" array in Details panel and add references to Scene Components</text>
  <rect x="100" y="320" width="800" height="35" fill="#2D2D2D" stroke="#FFD700" stroke-width="2" rx="3" />
  <text x="120" y="343" fill="#FFD700" font-family="Arial, sans-serif" font-size="14" font-weight="bold">▼ Docking Points [4]</text>
  <rect x="150" y="370" width="700" height="30" fill="#1E1E1E" stroke="#555555" stroke-width="1" rx="3" />
  <text x="170" y="390" fill="#00FF00" font-family="Courier New, monospace" font-size="12">[0] DockingPoint_1</text>
  <rect x="150" y="410" width="700" height="30" fill="#1E1E1E" stroke="#555555" stroke-width="1" rx="3" />
  <text x="170" y="430" fill="#00FF00" font-family="Courier New, monospace" font-size="12">[1] DockingPoint_2</text>
  <rect x="150" y="450" width="700" height="30" fill="#1E1E1E" stroke="#555555" stroke-width="1" rx="3" />
  <text x="170" y="470" fill="#00FF00" font-family="Courier New, monospace" font-size="12">[2] DockingPoint_3</text>
  <rect x="150" y="490" width="700" height="30" fill="#1E1E1E" stroke="#555555" stroke-width="1" rx="3" />
  <text x="170" y="510" fill="#00FF00" font-family="Courier New, monospace" font-size="12">[3] DockingPoint_4</text>
  <rect x="150" y="540" width="150" height="30" fill="#2D4A2D" stroke="#4CAF50" stroke-width="2" rx="3" />
  <text x="225" y="560" fill="#90EE90" font-family="Arial, sans-serif" font-size="12" text-anchor="middle" font-weight="bold">+ Add Element</text>
</svg>