<?xml version='1.0' encoding='utf-8'?>
<svg xmlns="http://www.w3.org/2000/svg" width="900" height="600" viewBox="0 0 900 600">
  <rect width="900" height="600" fill="#2D2D2D" />
  <rect x="303" y="23" width="300" height="80" rx="8" fill="#000000" opacity="0.3" />
  <rect x="300" y="20" width="300" height="80" rx="8" fill="none" stroke="#000000" stroke-width="2" />
  <rect x="300" y="20" width="300" height="32" rx="8" fill="#C80000" />
  <text x="310" y="42" fill="#FFFFFF" font-family="Arial, sans-serif" font-size="14" font-weight="bold">EVENT: Complete Trade Clicked</text>
  <rect x="300" y="52" width="300" height="48" fill="#1E1E1E" />
  <circle cx="575" cy="77" r="6" fill="#FFFFFF" stroke="#000000" stroke-width="1.5" />
  <text x="560" y="81" fill="#FFFFFF" font-family="Arial, sans-serif" font-size="12" text-anchor="end" />
  <rect x="203" y="143" width="500" height="140" rx="8" fill="#000000" opacity="0.3" />
  <rect x="200" y="140" width="500" height="140" rx="8" fill="none" stroke="#000000" stroke-width="2" />
  <rect x="200" y="140" width="500" height="32" rx="8" fill="#1B4F72" />
  <text x="210" y="162" fill="#FFFFFF" font-family="Arial, sans-serif" font-size="14" font-weight="bold">Validate Transaction</text>
  <rect x="200" y="172" width="500" height="108" fill="#1E1E1E" />
  <circle cx="205" cy="192" r="6" fill="#FFFFFF" stroke="#000000" stroke-width="1.5" />
  <text x="220" y="196" fill="#FFFFFF" font-family="Arial, sans-serif" font-size="12" text-anchor="start">Exec</text>
  <circle cx="695" cy="192" r="6" fill="#FFFFFF" stroke="#000000" stroke-width="1.5" />
  <text x="680" y="196" fill="#FFFFFF" font-family="Arial, sans-serif" font-size="12" text-anchor="end" />
  <circle cx="695" cy="212" r="6" fill="#DC143C" stroke="#000000" stroke-width="1.5" />
  <text x="680" y="216" fill="#FFFFFF" font-family="Arial, sans-serif" font-size="12" text-anchor="end">Is Valid</text>
  <circle cx="695" cy="232" r="6" fill="#FFB6C1" stroke="#000000" stroke-width="1.5" />
  <text x="680" y="236" fill="#FFFFFF" font-family="Arial, sans-serif" font-size="12" text-anchor="end">Error Message</text>
  <rect x="253" y="323" width="400" height="120" rx="8" fill="#000000" opacity="0.3" />
  <rect x="250" y="320" width="400" height="120" rx="8" fill="none" stroke="#000000" stroke-width="2" />
  <rect x="250" y="320" width="400" height="32" rx="8" fill="#FFFFFF" />
  <text x="260" y="342" fill="#FFFFFF" font-family="Arial, sans-serif" font-size="14" font-weight="bold">BRANCH: Transaction Valid?</text>
  <rect x="250" y="352" width="400" height="88" fill="#1E1E1E" />
  <circle cx="255" cy="372" r="6" fill="#FFFFFF" stroke="#000000" stroke-width="1.5" />
  <text x="270" y="376" fill="#FFFFFF" font-family="Arial, sans-serif" font-size="12" text-anchor="start">Exec</text>
  <circle cx="255" cy="392" r="6" fill="#DC143C" stroke="#000000" stroke-width="1.5" />
  <text x="270" y="396" fill="#FFFFFF" font-family="Arial, sans-serif" font-size="12" text-anchor="start">Condition</text>
  <circle cx="645" cy="372" r="6" fill="#FFFFFF" stroke="#000000" stroke-width="1.5" />
  <text x="630" y="376" fill="#FFFFFF" font-family="Arial, sans-serif" font-size="12" text-anchor="end">True</text>
  <circle cx="645" cy="392" r="6" fill="#FFFFFF" stroke="#000000" stroke-width="1.5" />
  <text x="630" y="396" fill="#FFFFFF" font-family="Arial, sans-serif" font-size="12" text-anchor="end">False</text>
  <rect x="53" y="483" width="350" height="100" rx="8" fill="#000000" opacity="0.3" />
  <rect x="50" y="480" width="350" height="100" rx="8" fill="none" stroke="#000000" stroke-width="2" />
  <rect x="50" y="480" width="350" height="32" rx="8" fill="#1B4F72" />
  <text x="60" y="502" fill="#FFFFFF" font-family="Arial, sans-serif" font-size="14" font-weight="bold">Execute Trade</text>
  <rect x="50" y="512" width="350" height="68" fill="#1E1E1E" />
  <circle cx="55" cy="532" r="6" fill="#FFFFFF" stroke="#000000" stroke-width="1.5" />
  <text x="70" y="536" fill="#FFFFFF" font-family="Arial, sans-serif" font-size="12" text-anchor="start">Exec</text>
  <circle cx="395" cy="532" r="6" fill="#FFFFFF" stroke="#000000" stroke-width="1.5" />
  <text x="380" y="536" fill="#FFFFFF" font-family="Arial, sans-serif" font-size="12" text-anchor="end" />
  <circle cx="395" cy="552" r="6" fill="#DC143C" stroke="#000000" stroke-width="1.5" />
  <text x="380" y="556" fill="#FFFFFF" font-family="Arial, sans-serif" font-size="12" text-anchor="end">Success</text>
  <rect x="503" y="483" width="350" height="80" rx="8" fill="#000000" opacity="0.3" />
  <rect x="500" y="480" width="350" height="80" rx="8" fill="none" stroke="#000000" stroke-width="2" />
  <rect x="500" y="480" width="350" height="32" rx="8" fill="#1B4F72" />
  <text x="510" y="502" fill="#FFFFFF" font-family="Arial, sans-serif" font-size="14" font-weight="bold">On Trade Completed (Error)</text>
  <rect x="500" y="512" width="350" height="48" fill="#1E1E1E" />
  <circle cx="505" cy="532" r="6" fill="#FFFFFF" stroke="#000000" stroke-width="1.5" />
  <text x="520" y="536" fill="#FFFFFF" font-family="Arial, sans-serif" font-size="12" text-anchor="start">Exec</text>
  <circle cx="505" cy="552" r="6" fill="#FFB6C1" stroke="#000000" stroke-width="1.5" />
  <text x="520" y="556" fill="#FFFFFF" font-family="Arial, sans-serif" font-size="12" text-anchor="start">Error Message</text>
  <path d="M 580 77 C 390.0 77, 390.0 192, 200 192" stroke="#FFFFFF" stroke-width="3" fill="none" opacity="0.8" />
  <path d="M 700 192 C 475.0 192, 475.0 372, 250 372" stroke="#FFFFFF" stroke-width="3" fill="none" opacity="0.8" />
  <path d="M 650 372 C 350.0 372, 350.0 532, 50 532" stroke="#FFFFFF" stroke-width="3" fill="none" opacity="0.8" />
  <path d="M 650 392 C 575.0 392, 575.0 532, 500 532" stroke="#FFFFFF" stroke-width="3" fill="none" opacity="0.8" />
</svg>