<?xml version='1.0' encoding='utf-8'?>
<svg xmlns="http://www.w3.org/2000/svg" width="900" height="500" viewBox="0 0 900 500">
  <rect width="900" height="500" fill="#2D2D2D" />
  <text x="450" y="30" fill="#FFFFFF" font-family="Arial, sans-serif" font-size="18" font-weight="bold" text-anchor="middle">BP_SpaceGameMode - BeginPlay Setup</text>
  <rect x="53" y="63" width="280" height="80" rx="8" fill="#000000" opacity="0.3" />
  <rect x="50" y="60" width="280" height="80" rx="8" fill="none" stroke="#000000" stroke-width="2" />
  <rect x="50" y="60" width="280" height="32" rx="8" fill="#C80000" />
  <text x="60" y="82" fill="#FFFFFF" font-family="Arial, sans-serif" font-size="14" font-weight="bold">EVENT: BeginPlay</text>
  <rect x="50" y="92" width="280" height="48" fill="#1E1E1E" />
  <circle cx="325" cy="117" r="6" fill="#FFFFFF" stroke="#000000" stroke-width="1.5" />
  <text x="310" y="121" fill="#FFFFFF" font-family="Arial, sans-serif" font-size="12" text-anchor="end" />
  <rect x="53" y="183" width="300" height="120" rx="8" fill="#000000" opacity="0.3" />
  <rect x="50" y="180" width="300" height="120" rx="8" fill="none" stroke="#000000" stroke-width="2" />
  <rect x="50" y="180" width="300" height="32" rx="8" fill="#1B4F72" />
  <text x="60" y="202" fill="#FFFFFF" font-family="Arial, sans-serif" font-size="14" font-weight="bold">Initialize Economy</text>
  <rect x="50" y="212" width="300" height="88" fill="#1E1E1E" />
  <circle cx="55" cy="232" r="6" fill="#FFFFFF" stroke="#000000" stroke-width="1.5" />
  <text x="70" y="236" fill="#FFFFFF" font-family="Arial, sans-serif" font-size="12" text-anchor="start">Exec</text>
  <circle cx="345" cy="232" r="6" fill="#FFFFFF" stroke="#000000" stroke-width="1.5" />
  <text x="330" y="236" fill="#FFFFFF" font-family="Arial, sans-serif" font-size="12" text-anchor="end" />
  <text x="65" y="282" fill="#AAAAAA" font-family="Arial, sans-serif" font-size="11" font-style="italic">Sets up economy manager and market prices</text>
  <rect x="53" y="343" width="300" height="120" rx="8" fill="#000000" opacity="0.3" />
  <rect x="50" y="340" width="300" height="120" rx="8" fill="none" stroke="#000000" stroke-width="2" />
  <rect x="50" y="340" width="300" height="32" rx="8" fill="#1B4F72" />
  <text x="60" y="362" fill="#FFFFFF" font-family="Arial, sans-serif" font-size="14" font-weight="bold">Initialize Factions</text>
  <rect x="50" y="372" width="300" height="88" fill="#1E1E1E" />
  <circle cx="55" cy="392" r="6" fill="#FFFFFF" stroke="#000000" stroke-width="1.5" />
  <text x="70" y="396" fill="#FFFFFF" font-family="Arial, sans-serif" font-size="12" text-anchor="start">Exec</text>
  <circle cx="345" cy="392" r="6" fill="#FFFFFF" stroke="#000000" stroke-width="1.5" />
  <text x="330" y="396" fill="#FFFFFF" font-family="Arial, sans-serif" font-size="12" text-anchor="end" />
  <text x="65" y="442" fill="#AAAAAA" font-family="Arial, sans-serif" font-size="11" font-style="italic">Loads faction data and relationships</text>
  <rect x="453" y="183" width="400" height="140" rx="8" fill="#000000" opacity="0.3" />
  <rect x="450" y="180" width="400" height="140" rx="8" fill="none" stroke="#000000" stroke-width="2" />
  <rect x="450" y="180" width="400" height="32" rx="8" fill="#1B4F72" />
  <text x="460" y="202" fill="#FFFFFF" font-family="Arial, sans-serif" font-size="14" font-weight="bold">Spawn Player Ship</text>
  <rect x="450" y="212" width="400" height="108" fill="#1E1E1E" />
  <circle cx="455" cy="232" r="6" fill="#FFFFFF" stroke="#000000" stroke-width="1.5" />
  <text x="470" y="236" fill="#FFFFFF" font-family="Arial, sans-serif" font-size="12" text-anchor="start">Exec</text>
  <circle cx="455" cy="252" r="6" fill="#00FFFF" stroke="#000000" stroke-width="1.5" />
  <text x="470" y="256" fill="#FFFFFF" font-family="Arial, sans-serif" font-size="12" text-anchor="start">Ship Data Asset</text>
  <circle cx="455" cy="272" r="6" fill="#FFD700" stroke="#000000" stroke-width="1.5" />
  <text x="470" y="276" fill="#FFFFFF" font-family="Arial, sans-serif" font-size="12" text-anchor="start">Spawn Location</text>
  <circle cx="845" cy="232" r="6" fill="#FFFFFF" stroke="#000000" stroke-width="1.5" />
  <text x="830" y="236" fill="#FFFFFF" font-family="Arial, sans-serif" font-size="12" text-anchor="end" />
  <circle cx="845" cy="252" r="6" fill="#00FFFF" stroke="#000000" stroke-width="1.5" />
  <text x="830" y="256" fill="#FFFFFF" font-family="Arial, sans-serif" font-size="12" text-anchor="end">Spawned Ship</text>
  <path d="M 330 117 C 190.0 117, 190.0 232, 50 232" stroke="#FFFFFF" stroke-width="3" fill="none" opacity="0.8" />
  <path d="M 350 232 C 200.0 232, 200.0 392, 50 392" stroke="#FFFFFF" stroke-width="3" fill="none" opacity="0.8" />
  <path d="M 350 392 C 400.0 392, 400.0 232, 450 232" stroke="#FFFFFF" stroke-width="3" fill="none" opacity="0.8" />
</svg>