<?xml version='1.0' encoding='utf-8'?>
<svg xmlns="http://www.w3.org/2000/svg" width="900" height="550" viewBox="0 0 900 550">
  <rect width="900" height="550" fill="#2D2D2D" />
  <text x="450" y="30" fill="#FFFFFF" font-family="Arial, sans-serif" font-size="18" font-weight="bold" text-anchor="middle">BP_SpaceStation - Attach Module Flow</text>
  <rect x="53" y="63" width="350" height="120" rx="8" fill="#000000" opacity="0.3" />
  <rect x="50" y="60" width="350" height="120" rx="8" fill="none" stroke="#000000" stroke-width="2" />
  <rect x="50" y="60" width="350" height="32" rx="8" fill="#C80000" />
  <text x="60" y="82" fill="#FFFFFF" font-family="Arial, sans-serif" font-size="14" font-weight="bold">EVENT: On Module Attached</text>
  <rect x="50" y="92" width="350" height="88" fill="#1E1E1E" />
  <circle cx="395" cy="117" r="6" fill="#FFFFFF" stroke="#000000" stroke-width="1.5" />
  <text x="380" y="121" fill="#FFFFFF" font-family="Arial, sans-serif" font-size="12" text-anchor="end" />
  <circle cx="395" cy="137" r="6" fill="#00FFFF" stroke="#000000" stroke-width="1.5" />
  <text x="380" y="141" fill="#FFFFFF" font-family="Arial, sans-serif" font-size="12" text-anchor="end">Module Actor</text>
  <circle cx="395" cy="157" r="6" fill="#00FF00" stroke="#000000" stroke-width="1.5" />
  <text x="380" y="161" fill="#FFFFFF" font-family="Arial, sans-serif" font-size="12" text-anchor="end">Attachment Point</text>
  <rect x="53" y="223" width="380" height="140" rx="8" fill="#000000" opacity="0.3" />
  <rect x="50" y="220" width="380" height="140" rx="8" fill="none" stroke="#000000" stroke-width="2" />
  <rect x="50" y="220" width="380" height="32" rx="8" fill="#1B4F72" />
  <text x="60" y="242" fill="#FFFFFF" font-family="Arial, sans-serif" font-size="14" font-weight="bold">Validate Module Attachment</text>
  <rect x="50" y="252" width="380" height="108" fill="#1E1E1E" />
  <circle cx="55" cy="272" r="6" fill="#FFFFFF" stroke="#000000" stroke-width="1.5" />
  <text x="70" y="276" fill="#FFFFFF" font-family="Arial, sans-serif" font-size="12" text-anchor="start">Exec</text>
  <circle cx="55" cy="292" r="6" fill="#00FFFF" stroke="#000000" stroke-width="1.5" />
  <text x="70" y="296" fill="#FFFFFF" font-family="Arial, sans-serif" font-size="12" text-anchor="start">Module</text>
  <circle cx="55" cy="312" r="6" fill="#00FF00" stroke="#000000" stroke-width="1.5" />
  <text x="70" y="316" fill="#FFFFFF" font-family="Arial, sans-serif" font-size="12" text-anchor="start">Point Index</text>
  <circle cx="425" cy="272" r="6" fill="#FFFFFF" stroke="#000000" stroke-width="1.5" />
  <text x="410" y="276" fill="#FFFFFF" font-family="Arial, sans-serif" font-size="12" text-anchor="end" />
  <circle cx="425" cy="292" r="6" fill="#DC143C" stroke="#000000" stroke-width="1.5" />
  <text x="410" y="296" fill="#FFFFFF" font-family="Arial, sans-serif" font-size="12" text-anchor="end">Is Valid</text>
  <rect x="83" y="403" width="320" height="120" rx="8" fill="#000000" opacity="0.3" />
  <rect x="80" y="400" width="320" height="120" rx="8" fill="none" stroke="#000000" stroke-width="2" />
  <rect x="80" y="400" width="320" height="32" rx="8" fill="#FFFFFF" />
  <text x="90" y="422" fill="#FFFFFF" font-family="Arial, sans-serif" font-size="14" font-weight="bold">BRANCH: Is Valid?</text>
  <rect x="80" y="432" width="320" height="88" fill="#1E1E1E" />
  <circle cx="85" cy="452" r="6" fill="#FFFFFF" stroke="#000000" stroke-width="1.5" />
  <text x="100" y="456" fill="#FFFFFF" font-family="Arial, sans-serif" font-size="12" text-anchor="start">Exec</text>
  <circle cx="85" cy="472" r="6" fill="#DC143C" stroke="#000000" stroke-width="1.5" />
  <text x="100" y="476" fill="#FFFFFF" font-family="Arial, sans-serif" font-size="12" text-anchor="start">Condition</text>
  <circle cx="395" cy="452" r="6" fill="#FFFFFF" stroke="#000000" stroke-width="1.5" />
  <text x="380" y="456" fill="#FFFFFF" font-family="Arial, sans-serif" font-size="12" text-anchor="end">True</text>
  <circle cx="395" cy="492" r="6" fill="#FFFFFF" stroke="#000000" stroke-width="1.5" />
  <text x="380" y="496" fill="#FFFFFF" font-family="Arial, sans-serif" font-size="12" text-anchor="end">False</text>
  <rect x="483" y="223" width="370" height="140" rx="8" fill="#000000" opacity="0.3" />
  <rect x="480" y="220" width="370" height="140" rx="8" fill="none" stroke="#000000" stroke-width="2" />
  <rect x="480" y="220" width="370" height="32" rx="8" fill="#1B4F72" />
  <text x="490" y="242" fill="#FFFFFF" font-family="Arial, sans-serif" font-size="14" font-weight="bold">Attach Module to Station</text>
  <rect x="480" y="252" width="370" height="108" fill="#1E1E1E" />
  <circle cx="485" cy="272" r="6" fill="#FFFFFF" stroke="#000000" stroke-width="1.5" />
  <text x="500" y="276" fill="#FFFFFF" font-family="Arial, sans-serif" font-size="12" text-anchor="start">Exec</text>
  <circle cx="485" cy="292" r="6" fill="#00FFFF" stroke="#000000" stroke-width="1.5" />
  <text x="500" y="296" fill="#FFFFFF" font-family="Arial, sans-serif" font-size="12" text-anchor="start">Module</text>
  <circle cx="485" cy="312" r="6" fill="#00FFFF" stroke="#000000" stroke-width="1.5" />
  <text x="500" y="316" fill="#FFFFFF" font-family="Arial, sans-serif" font-size="12" text-anchor="start">Attachment Point</text>
  <circle cx="845" cy="272" r="6" fill="#FFFFFF" stroke="#000000" stroke-width="1.5" />
  <text x="830" y="276" fill="#FFFFFF" font-family="Arial, sans-serif" font-size="12" text-anchor="end" />
  <rect x="483" y="403" width="370" height="100" rx="8" fill="#000000" opacity="0.3" />
  <rect x="480" y="400" width="370" height="100" rx="8" fill="none" stroke="#000000" stroke-width="2" />
  <rect x="480" y="400" width="370" height="32" rx="8" fill="#1B4F72" />
  <text x="490" y="422" fill="#FFFFFF" font-family="Arial, sans-serif" font-size="14" font-weight="bold">Update Station Stats</text>
  <rect x="480" y="432" width="370" height="68" fill="#1E1E1E" />
  <circle cx="485" cy="452" r="6" fill="#FFFFFF" stroke="#000000" stroke-width="1.5" />
  <text x="500" y="456" fill="#FFFFFF" font-family="Arial, sans-serif" font-size="12" text-anchor="start">Exec</text>
  <circle cx="845" cy="452" r="6" fill="#FFFFFF" stroke="#000000" stroke-width="1.5" />
  <text x="830" y="456" fill="#FFFFFF" font-family="Arial, sans-serif" font-size="12" text-anchor="end" />
  <path d="M 400 117 C 225.0 117, 225.0 272, 50 272" stroke="#FFFFFF" stroke-width="3" fill="none" opacity="0.8" />
  <path d="M 430 272 C 255.0 272, 255.0 452, 80 452" stroke="#FFFFFF" stroke-width="3" fill="none" opacity="0.8" />
  <path d="M 400 452 C 440.0 452, 440.0 272, 480 272" stroke="#FFFFFF" stroke-width="3" fill="none" opacity="0.8" />
  <path d="M 850 272 C 665.0 272, 665.0 452, 480 452" stroke="#FFFFFF" stroke-width="3" fill="none" opacity="0.8" />
</svg>