<?xml version="1.0" ?>
<svg xmlns="http://www.w3.org/2000/svg" width="600" height="350" viewBox="0 0 600 350">
  <rect x="50" y="50" width="180" height="60" fill="#1C1C1C" stroke="#000" stroke-width="2" rx="4"/>
  <rect x="50" y="50" width="180" height="24" fill="#006400" rx="4"/>
  <text x="140" y="66" fill="white" font-family="Arial, sans-serif" font-size="12" font-weight="bold" text-anchor="middle">Get Docked Station</text>
  <text x="58" y="90" fill="#CCCCCC" font-family="Arial, sans-serif" font-size="10">Pure</text>
  <circle cx="240" cy="80" r="6" fill="#00FFFF" stroke="#000" stroke-width="1.5"/>
  <text x="228" y="84" fill="#CCCCCC" font-family="Arial, sans-serif" font-size="10" text-anchor="end">Return Value</text>
  <rect x="50" y="150" width="180" height="60" fill="#1C1C1C" stroke="#000" stroke-width="2" rx="4"/>
  <rect x="50" y="150" width="180" height="24" fill="#006400" rx="4"/>
  <text x="140" y="166" fill="white" font-family="Arial, sans-serif" font-size="12" font-weight="bold" text-anchor="middle">Has Marketplace</text>
  <text x="58" y="190" fill="#CCCCCC" font-family="Arial, sans-serif" font-size="10">Pure</text>
  <circle cx="50" cy="180" r="6" fill="#00FFFF" stroke="#000" stroke-width="1.5"/>
  <text x="62" y="184" fill="#CCCCCC" font-family="Arial, sans-serif" font-size="10" text-anchor="start">Target</text>
  <circle cx="240" cy="180" r="6" fill="#DC143C" stroke="#000" stroke-width="1.5"/>
  <text x="228" y="184" fill="#CCCCCC" font-family="Arial, sans-serif" font-size="10" text-anchor="end">Return Value</text>
  <rect x="300" y="150" width="120" height="80" fill="#1C1C1C" stroke="#000" stroke-width="2" rx="4"/>
  <rect x="300" y="150" width="120" height="24" fill="#FFFFFF" rx="4"/>
  <text x="360" y="166" fill="white" font-family="Arial, sans-serif" font-size="12" font-weight="bold" text-anchor="middle">Branch</text>
  <circle cx="300" cy="180" r="6" fill="#FFFFFF" stroke="#000" stroke-width="1.5"/>
  <text x="312" y="184" fill="#CCCCCC" font-family="Arial, sans-serif" font-size="10" text-anchor="start"/>
  <circle cx="300" cy="200" r="6" fill="#DC143C" stroke="#000" stroke-width="1.5"/>
  <text x="312" y="204" fill="#CCCCCC" font-family="Arial, sans-serif" font-size="10" text-anchor="start">Condition</text>
  <circle cx="430" cy="170" r="6" fill="#FFFFFF" stroke="#000" stroke-width="1.5"/>
  <text x="418" y="174" fill="#CCCCCC" font-family="Arial, sans-serif" font-size="10" text-anchor="end">True</text>
  <circle cx="430" cy="210" r="6" fill="#FFFFFF" stroke="#000" stroke-width="1.5"/>
  <text x="418" y="214" fill="#CCCCCC" font-family="Arial, sans-serif" font-size="10" text-anchor="end">False</text>
  <rect x="300" y="260" width="180" height="60" fill="#1C1C1C" stroke="#000" stroke-width="2" rx="4"/>
  <rect x="300" y="260" width="180" height="24" fill="#1B4F72" rx="4"/>
  <text x="390" y="276" fill="white" font-family="Arial, sans-serif" font-size="12" font-weight="bold" text-anchor="middle">Open Trading UI</text>
  <circle cx="300" cy="290" r="6" fill="#FFFFFF" stroke="#000" stroke-width="1.5"/>
  <text x="312" y="294" fill="#CCCCCC" font-family="Arial, sans-serif" font-size="10" text-anchor="start"/>
  <rect x="470" y="260" width="180" height="60" fill="#1C1C1C" stroke="#000" stroke-width="2" rx="4"/>
  <rect x="470" y="260" width="180" height="24" fill="#1B4F72" rx="4"/>
  <text x="560" y="276" fill="white" font-family="Arial, sans-serif" font-size="12" font-weight="bold" text-anchor="middle">Show Error Message</text>
  <circle cx="470" cy="290" r="6" fill="#FFFFFF" stroke="#000" stroke-width="1.5"/>
  <text x="482" y="294" fill="#CCCCCC" font-family="Arial, sans-serif" font-size="10" text-anchor="start"/>
  <path d="M 230 80 C 140.0 80, 140.0 180, 50 180" stroke="#00FFFF" stroke-width="2" fill="none"/>
  <path d="M 230 180 C 265.0 180, 265.0 200, 300 200" stroke="#DC143C" stroke-width="2" fill="none"/>
  <path d="M 420 170 C 360.0 170, 360.0 290, 300 290" stroke="#FFFFFF" stroke-width="2" fill="none"/>
  <path d="M 420 210 C 445.0 210, 445.0 290, 470 290" stroke="#FFFFFF" stroke-width="2" fill="none"/>
</svg>
