<?xml version='1.0' encoding='utf-8'?>
<svg xmlns="http://www.w3.org/2000/svg" width="900" height="600" viewBox="0 0 900 600">
  <rect width="900" height="600" fill="#2D2D2D" />
  <rect x="253" y="23" width="400" height="120" rx="8" fill="#000000" opacity="0.3" />
  <rect x="250" y="20" width="400" height="120" rx="8" fill="none" stroke="#000000" stroke-width="2" />
  <rect x="250" y="20" width="400" height="32" rx="8" fill="#8E44AD" />
  <text x="260" y="42" fill="#FFFFFF" font-family="Arial, sans-serif" font-size="14" font-weight="bold">CUSTOM EVENT: Update Display</text>
  <rect x="250" y="52" width="400" height="88" fill="#1E1E1E" />
  <circle cx="625" cy="77" r="6" fill="#FFFFFF" stroke="#000000" stroke-width="1.5" />
  <text x="610" y="81" fill="#FFFFFF" font-family="Arial, sans-serif" font-size="12" text-anchor="end" />
  <circle cx="625" cy="97" r="6" fill="#00FFFF" stroke="#000000" stroke-width="1.5" />
  <text x="610" y="101" fill="#FFFFFF" font-family="Arial, sans-serif" font-size="12" text-anchor="end">Market Data</text>
  <circle cx="625" cy="117" r="6" fill="#DC143C" stroke="#000000" stroke-width="1.5" />
  <text x="610" y="121" fill="#FFFFFF" font-family="Arial, sans-serif" font-size="12" text-anchor="end">Is Buy Mode</text>
  <rect x="153" y="183" width="400" height="140" rx="8" fill="#000000" opacity="0.3" />
  <rect x="150" y="180" width="400" height="140" rx="8" fill="none" stroke="#000000" stroke-width="2" />
  <rect x="150" y="180" width="400" height="32" rx="8" fill="#1B4F72" />
  <text x="160" y="202" fill="#FFFFFF" font-family="Arial, sans-serif" font-size="14" font-weight="bold">Get Item Price (Buy)</text>
  <rect x="150" y="212" width="400" height="108" fill="#1E1E1E" />
  <circle cx="155" cy="232" r="6" fill="#FFFFFF" stroke="#000000" stroke-width="1.5" />
  <text x="170" y="236" fill="#FFFFFF" font-family="Arial, sans-serif" font-size="12" text-anchor="start">Exec</text>
  <circle cx="155" cy="252" r="6" fill="#00FFFF" stroke="#000000" stroke-width="1.5" />
  <text x="170" y="256" fill="#FFFFFF" font-family="Arial, sans-serif" font-size="12" text-anchor="start">Market</text>
  <circle cx="155" cy="272" r="6" fill="#00FFFF" stroke="#000000" stroke-width="1.5" />
  <text x="170" y="276" fill="#FFFFFF" font-family="Arial, sans-serif" font-size="12" text-anchor="start">Item</text>
  <circle cx="155" cy="292" r="6" fill="#DC143C" stroke="#000000" stroke-width="1.5" />
  <text x="170" y="296" fill="#FFFFFF" font-family="Arial, sans-serif" font-size="12" text-anchor="start">Is Buying = True</text>
  <circle cx="545" cy="232" r="6" fill="#FFFFFF" stroke="#000000" stroke-width="1.5" />
  <text x="530" y="236" fill="#FFFFFF" font-family="Arial, sans-serif" font-size="12" text-anchor="end" />
  <circle cx="545" cy="252" r="6" fill="#90EE90" stroke="#000000" stroke-width="1.5" />
  <text x="530" y="256" fill="#FFFFFF" font-family="Arial, sans-serif" font-size="12" text-anchor="end">Buy Price</text>
  <rect x="153" y="353" width="400" height="140" rx="8" fill="#000000" opacity="0.3" />
  <rect x="150" y="350" width="400" height="140" rx="8" fill="none" stroke="#000000" stroke-width="2" />
  <rect x="150" y="350" width="400" height="32" rx="8" fill="#1B4F72" />
  <text x="160" y="372" fill="#FFFFFF" font-family="Arial, sans-serif" font-size="14" font-weight="bold">Get Item Price (Sell)</text>
  <rect x="150" y="382" width="400" height="108" fill="#1E1E1E" />
  <circle cx="155" cy="402" r="6" fill="#FFFFFF" stroke="#000000" stroke-width="1.5" />
  <text x="170" y="406" fill="#FFFFFF" font-family="Arial, sans-serif" font-size="12" text-anchor="start">Exec</text>
  <circle cx="155" cy="422" r="6" fill="#00FFFF" stroke="#000000" stroke-width="1.5" />
  <text x="170" y="426" fill="#FFFFFF" font-family="Arial, sans-serif" font-size="12" text-anchor="start">Market</text>
  <circle cx="155" cy="442" r="6" fill="#00FFFF" stroke="#000000" stroke-width="1.5" />
  <text x="170" y="446" fill="#FFFFFF" font-family="Arial, sans-serif" font-size="12" text-anchor="start">Item</text>
  <circle cx="155" cy="462" r="6" fill="#DC143C" stroke="#000000" stroke-width="1.5" />
  <text x="170" y="466" fill="#FFFFFF" font-family="Arial, sans-serif" font-size="12" text-anchor="start">Is Buying = False</text>
  <circle cx="545" cy="402" r="6" fill="#FFFFFF" stroke="#000000" stroke-width="1.5" />
  <text x="530" y="406" fill="#FFFFFF" font-family="Arial, sans-serif" font-size="12" text-anchor="end" />
  <circle cx="545" cy="422" r="6" fill="#90EE90" stroke="#000000" stroke-width="1.5" />
  <text x="530" y="426" fill="#FFFFFF" font-family="Arial, sans-serif" font-size="12" text-anchor="end">Sell Price</text>
  <rect x="603" y="353" width="250" height="100" rx="8" fill="#000000" opacity="0.3" />
  <rect x="600" y="350" width="250" height="100" rx="8" fill="none" stroke="#000000" stroke-width="2" />
  <rect x="600" y="350" width="250" height="32" rx="8" fill="#1B4F72" />
  <text x="610" y="372" fill="#FFFFFF" font-family="Arial, sans-serif" font-size="14" font-weight="bold">Set Price Text</text>
  <rect x="600" y="382" width="250" height="68" fill="#1E1E1E" />
  <circle cx="605" cy="402" r="6" fill="#FFFFFF" stroke="#000000" stroke-width="1.5" />
  <text x="620" y="406" fill="#FFFFFF" font-family="Arial, sans-serif" font-size="12" text-anchor="start">Exec</text>
  <circle cx="605" cy="422" r="6" fill="#FFB6C1" stroke="#000000" stroke-width="1.5" />
  <text x="620" y="426" fill="#FFFFFF" font-family="Arial, sans-serif" font-size="12" text-anchor="start">Buy/Sell Prices</text>
  <path d="M 630 77 C 390.0 77, 390.0 232, 150 232" stroke="#FFFFFF" stroke-width="3" fill="none" opacity="0.8" />
  <path d="M 550 232 C 350.0 232, 350.0 402, 150 402" stroke="#FFFFFF" stroke-width="3" fill="none" opacity="0.8" />
  <path d="M 550 402 C 575.0 402, 575.0 402, 600 402" stroke="#FFFFFF" stroke-width="3" fill="none" opacity="0.8" />
</svg>