<?xml version='1.0' encoding='utf-8'?>
<svg xmlns="http://www.w3.org/2000/svg" width="900" height="650" viewBox="0 0 900 650">
  <rect width="900" height="650" fill="#2D2D2D" />
  <rect x="303" y="23" width="300" height="80" rx="8" fill="#000000" opacity="0.3" />
  <rect x="300" y="20" width="300" height="80" rx="8" fill="none" stroke="#000000" stroke-width="2" />
  <rect x="300" y="20" width="300" height="32" rx="8" fill="#C80000" />
  <text x="310" y="42" fill="#FFFFFF" font-family="Arial, sans-serif" font-size="14" font-weight="bold">EVENT: Construct</text>
  <rect x="300" y="52" width="300" height="48" fill="#1E1E1E" />
  <circle cx="575" cy="77" r="6" fill="#FFFFFF" stroke="#000000" stroke-width="1.5" />
  <text x="560" y="81" fill="#FFFFFF" font-family="Arial, sans-serif" font-size="12" text-anchor="end" />
  <rect x="253" y="143" width="400" height="120" rx="8" fill="#000000" opacity="0.3" />
  <rect x="250" y="140" width="400" height="120" rx="8" fill="none" stroke="#000000" stroke-width="2" />
  <rect x="250" y="140" width="400" height="32" rx="8" fill="#FFFFFF" />
  <text x="260" y="162" fill="#000000" font-family="Arial, sans-serif" font-size="14" font-weight="bold">BRANCH: Is Valid (ItemData)?</text>
  <rect x="250" y="172" width="400" height="88" fill="#1E1E1E" />
  <circle cx="255" cy="192" r="6" fill="#FFFFFF" stroke="#000000" stroke-width="1.5" />
  <text x="270" y="196" fill="#FFFFFF" font-family="Arial, sans-serif" font-size="12" text-anchor="start">Exec</text>
  <circle cx="255" cy="212" r="6" fill="#00FFFF" stroke="#000000" stroke-width="1.5" />
  <text x="270" y="216" fill="#FFFFFF" font-family="Arial, sans-serif" font-size="12" text-anchor="start">ItemData</text>
  <circle cx="645" cy="192" r="6" fill="#FFFFFF" stroke="#000000" stroke-width="1.5" />
  <text x="630" y="196" fill="#FFFFFF" font-family="Arial, sans-serif" font-size="12" text-anchor="end">True</text>
  <circle cx="645" cy="212" r="6" fill="#FFFFFF" stroke="#000000" stroke-width="1.5" />
  <text x="630" y="216" fill="#FFFFFF" font-family="Arial, sans-serif" font-size="12" text-anchor="end">False</text>
  <rect x="203" y="303" width="350" height="100" rx="8" fill="#000000" opacity="0.3" />
  <rect x="200" y="300" width="350" height="100" rx="8" fill="none" stroke="#000000" stroke-width="2" />
  <rect x="200" y="300" width="350" height="32" rx="8" fill="#1B4F72" />
  <text x="210" y="322" fill="#FFFFFF" font-family="Arial, sans-serif" font-size="14" font-weight="bold">Set Text (ItemNameText)</text>
  <rect x="200" y="332" width="350" height="68" fill="#1E1E1E" />
  <circle cx="205" cy="352" r="6" fill="#FFFFFF" stroke="#000000" stroke-width="1.5" />
  <text x="220" y="356" fill="#FFFFFF" font-family="Arial, sans-serif" font-size="12" text-anchor="start">Exec</text>
  <circle cx="205" cy="372" r="6" fill="#FFB6C1" stroke="#000000" stroke-width="1.5" />
  <text x="220" y="376" fill="#FFFFFF" font-family="Arial, sans-serif" font-size="12" text-anchor="start">InText</text>
  <circle cx="545" cy="352" r="6" fill="#FFFFFF" stroke="#000000" stroke-width="1.5" />
  <text x="530" y="356" fill="#FFFFFF" font-family="Arial, sans-serif" font-size="12" text-anchor="end" />
  <rect x="203" y="433" width="400" height="140" rx="8" fill="#000000" opacity="0.3" />
  <rect x="200" y="430" width="400" height="140" rx="8" fill="none" stroke="#000000" stroke-width="2" />
  <rect x="200" y="430" width="400" height="32" rx="8" fill="#1B4F72" />
  <text x="210" y="452" fill="#FFFFFF" font-family="Arial, sans-serif" font-size="14" font-weight="bold">Get Item Price</text>
  <rect x="200" y="462" width="400" height="108" fill="#1E1E1E" />
  <circle cx="205" cy="482" r="6" fill="#FFFFFF" stroke="#000000" stroke-width="1.5" />
  <text x="220" y="486" fill="#FFFFFF" font-family="Arial, sans-serif" font-size="12" text-anchor="start">Exec</text>
  <circle cx="205" cy="502" r="6" fill="#00FFFF" stroke="#000000" stroke-width="1.5" />
  <text x="220" y="506" fill="#FFFFFF" font-family="Arial, sans-serif" font-size="12" text-anchor="start">Item</text>
  <circle cx="205" cy="522" r="6" fill="#DC143C" stroke="#000000" stroke-width="1.5" />
  <text x="220" y="526" fill="#FFFFFF" font-family="Arial, sans-serif" font-size="12" text-anchor="start">Is Buying</text>
  <circle cx="595" cy="482" r="6" fill="#FFFFFF" stroke="#000000" stroke-width="1.5" />
  <text x="580" y="486" fill="#FFFFFF" font-family="Arial, sans-serif" font-size="12" text-anchor="end" />
  <circle cx="595" cy="502" r="6" fill="#90EE90" stroke="#000000" stroke-width="1.5" />
  <text x="580" y="506" fill="#FFFFFF" font-family="Arial, sans-serif" font-size="12" text-anchor="end">Price</text>
  <rect x="153" y="583" width="300" height="60" rx="8" fill="#000000" opacity="0.3" />
  <rect x="150" y="580" width="300" height="60" rx="8" fill="none" stroke="#000000" stroke-width="2" />
  <rect x="150" y="580" width="300" height="32" rx="8" fill="#1B4F72" />
  <text x="160" y="602" fill="#FFFFFF" font-family="Arial, sans-serif" font-size="14" font-weight="bold">Update Price Display</text>
  <rect x="150" y="612" width="300" height="28" fill="#1E1E1E" />
  <circle cx="155" cy="632" r="6" fill="#FFFFFF" stroke="#000000" stroke-width="1.5" />
  <text x="170" y="636" fill="#FFFFFF" font-family="Arial, sans-serif" font-size="12" text-anchor="start">Exec</text>
  <rect x="503" y="583" width="300" height="60" rx="8" fill="#000000" opacity="0.3" />
  <rect x="500" y="580" width="300" height="60" rx="8" fill="none" stroke="#000000" stroke-width="2" />
  <rect x="500" y="580" width="300" height="32" rx="8" fill="#1B4F72" />
  <text x="510" y="602" fill="#FFFFFF" font-family="Arial, sans-serif" font-size="14" font-weight="bold">Update Stock Display</text>
  <rect x="500" y="612" width="300" height="28" fill="#1E1E1E" />
  <circle cx="505" cy="632" r="6" fill="#FFFFFF" stroke="#000000" stroke-width="1.5" />
  <text x="520" y="636" fill="#FFFFFF" font-family="Arial, sans-serif" font-size="12" text-anchor="start">Exec</text>
  <path d="M 580 77 C 415.0 77, 415.0 192, 250 192" stroke="#FFFFFF" stroke-width="3" fill="none" opacity="0.8" />
  <path d="M 650 192 C 425.0 192, 425.0 352, 200 352" stroke="#FFFFFF" stroke-width="3" fill="none" opacity="0.8" />
  <path d="M 550 352 C 375.0 352, 375.0 482, 200 482" stroke="#FFFFFF" stroke-width="3" fill="none" opacity="0.8" />
  <path d="M 600 482 C 450.0 482, 450.0 632, 300 632" stroke="#FFFFFF" stroke-width="3" fill="none" opacity="0.8" />
  <path d="M 450 632 C 475.0 632, 475.0 632, 500 632" stroke="#FFFFFF" stroke-width="3" fill="none" opacity="0.8" />
</svg>