<?xml version='1.0' encoding='utf-8'?>
<svg xmlns="http://www.w3.org/2000/svg" width="700" height="380" viewBox="0 0 700 380">
  <rect width="700" height="380" fill="#2D2D2D" />
  <rect x="23" y="23" width="220" height="60" rx="8" fill="#000000" opacity="0.3" />
  <rect x="20" y="20" width="220" height="60" rx="8" fill="none" stroke="#000000" stroke-width="2" />
  <rect x="20" y="20" width="220" height="32" rx="8" fill="#C80000" />
  <text x="30" y="42" fill="#FFFFFF" font-family="Arial, sans-serif" font-size="14" font-weight="bold">EVENT: OnDecrementClicked</text>
  <rect x="20" y="52" width="220" height="28" fill="#1E1E1E" />
  <circle cx="235" cy="72" r="6" fill="#FFFFFF" stroke="#000000" stroke-width="1.5" />
  <text x="220" y="76" fill="#FFFFFF" font-family="Arial, sans-serif" font-size="12" text-anchor="end" />
  <rect x="273" y="23" width="220" height="60" rx="8" fill="#000000" opacity="0.3" />
  <rect x="270" y="20" width="220" height="60" rx="8" fill="none" stroke="#000000" stroke-width="2" />
  <rect x="270" y="20" width="220" height="32" rx="8" fill="#1B4F72" />
  <text x="280" y="42" fill="#FFFFFF" font-family="Arial, sans-serif" font-size="14" font-weight="bold">Get Current Quantity</text>
  <rect x="270" y="52" width="220" height="28" fill="#1E1E1E" />
  <circle cx="275" cy="72" r="6" fill="#FFFFFF" stroke="#000000" stroke-width="1.5" />
  <text x="290" y="76" fill="#FFFFFF" font-family="Arial, sans-serif" font-size="12" text-anchor="start" />
  <circle cx="485" cy="72" r="6" fill="#00FF00" stroke="#000000" stroke-width="1.5" />
  <text x="470" y="76" fill="#FFFFFF" font-family="Arial, sans-serif" font-size="12" text-anchor="end">Quantity</text>
  <rect x="43" y="123" width="180" height="80" rx="8" fill="#000000" opacity="0.3" />
  <rect x="40" y="120" width="180" height="80" rx="8" fill="none" stroke="#000000" stroke-width="2" />
  <rect x="40" y="120" width="180" height="32" rx="8" fill="#006400" />
  <text x="50" y="142" fill="#FFFFFF" font-family="Arial, sans-serif" font-size="14" font-weight="bold">Subtract (-)</text>
  <rect x="40" y="152" width="180" height="48" fill="#1E1E1E" />
  <circle cx="45" cy="167" r="6" fill="#00FF00" stroke="#000000" stroke-width="1.5" />
  <text x="60" y="171" fill="#FFFFFF" font-family="Arial, sans-serif" font-size="12" text-anchor="start">A</text>
  <circle cx="45" cy="187" r="6" fill="#00FF00" stroke="#000000" stroke-width="1.5" />
  <text x="60" y="191" fill="#FFFFFF" font-family="Arial, sans-serif" font-size="12" text-anchor="start">B: 1</text>
  <circle cx="215" cy="187" r="6" fill="#00FF00" stroke="#000000" stroke-width="1.5" />
  <text x="200" y="191" fill="#FFFFFF" font-family="Arial, sans-serif" font-size="12" text-anchor="end">Result</text>
  <rect x="253" y="123" width="240" height="100" rx="8" fill="#000000" opacity="0.3" />
  <rect x="250" y="120" width="240" height="100" rx="8" fill="none" stroke="#000000" stroke-width="2" />
  <rect x="250" y="120" width="240" height="32" rx="8" fill="#FFFFFF" />
  <text x="260" y="142" fill="#000000" font-family="Arial, sans-serif" font-size="14" font-weight="bold">BRANCH: Check Minimum</text>
  <rect x="250" y="152" width="240" height="68" fill="#1E1E1E" />
  <circle cx="255" cy="167" r="6" fill="#FFFFFF" stroke="#000000" stroke-width="1.5" />
  <text x="270" y="171" fill="#FFFFFF" font-family="Arial, sans-serif" font-size="12" text-anchor="start" />
  <circle cx="255" cy="187" r="6" fill="#DC143C" stroke="#000000" stroke-width="1.5" />
  <text x="270" y="191" fill="#FFFFFF" font-family="Arial, sans-serif" font-size="12" text-anchor="start">Qty &gt;= 1</text>
  <circle cx="485" cy="167" r="6" fill="#FFFFFF" stroke="#000000" stroke-width="1.5" />
  <text x="470" y="171" fill="#FFFFFF" font-family="Arial, sans-serif" font-size="12" text-anchor="end">True</text>
  <circle cx="485" cy="187" r="6" fill="#FFFFFF" stroke="#000000" stroke-width="1.5" />
  <text x="470" y="191" fill="#FFFFFF" font-family="Arial, sans-serif" font-size="12" text-anchor="end">False</text>
  <rect x="523" y="103" width="160" height="60" rx="8" fill="#000000" opacity="0.3" />
  <rect x="520" y="100" width="160" height="60" rx="8" fill="none" stroke="#000000" stroke-width="2" />
  <rect x="520" y="100" width="160" height="32" rx="8" fill="#1B4F72" />
  <text x="530" y="122" fill="#FFFFFF" font-family="Arial, sans-serif" font-size="14" font-weight="bold">Update Display</text>
  <rect x="520" y="132" width="160" height="28" fill="#1E1E1E" />
  <circle cx="525" cy="152" r="6" fill="#FFFFFF" stroke="#000000" stroke-width="1.5" />
  <text x="540" y="156" fill="#FFFFFF" font-family="Arial, sans-serif" font-size="12" text-anchor="start" />
  <rect x="523" y="183" width="160" height="60" rx="8" fill="#000000" opacity="0.3" />
  <rect x="520" y="180" width="160" height="60" rx="8" fill="none" stroke="#000000" stroke-width="2" />
  <rect x="520" y="180" width="160" height="32" rx="8" fill="#1B4F72" />
  <text x="530" y="202" fill="#FFFFFF" font-family="Arial, sans-serif" font-size="14" font-weight="bold">Keep at 1</text>
  <rect x="520" y="212" width="160" height="28" fill="#1E1E1E" />
  <circle cx="525" cy="232" r="6" fill="#FFFFFF" stroke="#000000" stroke-width="1.5" />
  <text x="540" y="236" fill="#FFFFFF" font-family="Arial, sans-serif" font-size="12" text-anchor="start" />
  <path d="M 240 72 C 255.0 72, 255.0 72, 270 72" stroke="#FFFFFF" stroke-width="3" fill="none" opacity="0.8" />
  <path d="M 220 187 C 235.0 187, 235.0 187, 250 187" stroke="#FFFFFF" stroke-width="3" fill="none" opacity="0.8" />
  <path d="M 490 167 C 505.0 167, 505.0 152, 520 152" stroke="#FFFFFF" stroke-width="3" fill="none" opacity="0.8" />
  <path d="M 490 187 C 505.0 187, 505.0 232, 520 232" stroke="#FFFFFF" stroke-width="3" fill="none" opacity="0.8" />
  <text x="370" y="60" fill="#CCCCCC" font-family="Arial, sans-serif" font-size="11" text-anchor="middle">1. Get current</text>
  <text x="130" y="160" fill="#CCCCCC" font-family="Arial, sans-serif" font-size="11" text-anchor="middle">2. Subtract 1</text>
  <text x="370" y="160" fill="#CCCCCC" font-family="Arial, sans-serif" font-size="11" text-anchor="middle">3. Check min</text>
  <text x="600" y="140" fill="#CCCCCC" font-family="Arial, sans-serif" font-size="11" text-anchor="middle">4. Update UI</text>
  <text x="600" y="220" fill="#CCCCCC" font-family="Arial, sans-serif" font-size="11" text-anchor="middle">Min is 1</text>
</svg>