<?xml version='1.0' encoding='utf-8'?>
<svg xmlns="http://www.w3.org/2000/svg" width="900" height="650" viewBox="0 0 900 650">
  <rect width="900" height="650" fill="#2D2D2D" />
  <text x="450" y="30" fill="#FFFFFF" font-family="Arial, sans-serif" font-size="18" font-weight="bold" text-anchor="middle">WBP_TradingUI - Open Market Flow</text>
  <rect x="53" y="63" width="320" height="100" rx="8" fill="#000000" opacity="0.3" />
  <rect x="50" y="60" width="320" height="100" rx="8" fill="none" stroke="#000000" stroke-width="2" />
  <rect x="50" y="60" width="320" height="32" rx="8" fill="#C80000" />
  <text x="60" y="82" fill="#FFFFFF" font-family="Arial, sans-serif" font-size="14" font-weight="bold">EVENT: On Market Opened</text>
  <rect x="50" y="92" width="320" height="68" fill="#1E1E1E" />
  <circle cx="365" cy="117" r="6" fill="#FFFFFF" stroke="#000000" stroke-width="1.5" />
  <text x="350" y="121" fill="#FFFFFF" font-family="Arial, sans-serif" font-size="12" text-anchor="end" />
  <circle cx="365" cy="137" r="6" fill="#00FFFF" stroke="#000000" stroke-width="1.5" />
  <text x="350" y="141" fill="#FFFFFF" font-family="Arial, sans-serif" font-size="12" text-anchor="end">Market Data</text>
  <rect x="53" y="203" width="350" height="120" rx="8" fill="#000000" opacity="0.3" />
  <rect x="50" y="200" width="350" height="120" rx="8" fill="none" stroke="#000000" stroke-width="2" />
  <rect x="50" y="200" width="350" height="32" rx="8" fill="#1B4F72" />
  <text x="60" y="222" fill="#FFFFFF" font-family="Arial, sans-serif" font-size="14" font-weight="bold">Get Available Items</text>
  <rect x="50" y="232" width="350" height="88" fill="#1E1E1E" />
  <circle cx="55" cy="252" r="6" fill="#FFFFFF" stroke="#000000" stroke-width="1.5" />
  <text x="70" y="256" fill="#FFFFFF" font-family="Arial, sans-serif" font-size="12" text-anchor="start">Exec</text>
  <circle cx="55" cy="272" r="6" fill="#00FFFF" stroke="#000000" stroke-width="1.5" />
  <text x="70" y="276" fill="#FFFFFF" font-family="Arial, sans-serif" font-size="12" text-anchor="start">Market Data</text>
  <circle cx="395" cy="252" r="6" fill="#FFFFFF" stroke="#000000" stroke-width="1.5" />
  <text x="380" y="256" fill="#FFFFFF" font-family="Arial, sans-serif" font-size="12" text-anchor="end" />
  <circle cx="395" cy="272" r="6" fill="#00FFFF" stroke="#000000" stroke-width="1.5" />
  <text x="380" y="276" fill="#FFFFFF" font-family="Arial, sans-serif" font-size="12" text-anchor="end">Item Array</text>
  <rect x="53" y="363" width="350" height="180" rx="8" fill="#000000" opacity="0.3" />
  <rect x="50" y="360" width="350" height="180" rx="8" fill="none" stroke="#000000" stroke-width="2" />
  <rect x="50" y="360" width="350" height="32" rx="8" fill="#FF8C00" />
  <text x="60" y="382" fill="#FFFFFF" font-family="Arial, sans-serif" font-size="14" font-weight="bold">ForEach Loop</text>
  <rect x="50" y="392" width="350" height="148" fill="#1E1E1E" />
  <circle cx="55" cy="412" r="6" fill="#FFFFFF" stroke="#000000" stroke-width="1.5" />
  <text x="70" y="416" fill="#FFFFFF" font-family="Arial, sans-serif" font-size="12" text-anchor="start">Exec</text>
  <circle cx="55" cy="432" r="6" fill="#00FFFF" stroke="#000000" stroke-width="1.5" />
  <text x="70" y="436" fill="#FFFFFF" font-family="Arial, sans-serif" font-size="12" text-anchor="start">Array</text>
  <circle cx="395" cy="412" r="6" fill="#FFFFFF" stroke="#000000" stroke-width="1.5" />
  <text x="380" y="416" fill="#FFFFFF" font-family="Arial, sans-serif" font-size="12" text-anchor="end">Loop Body</text>
  <circle cx="395" cy="432" r="6" fill="#FFFFFF" stroke="#000000" stroke-width="1.5" />
  <text x="380" y="436" fill="#FFFFFF" font-family="Arial, sans-serif" font-size="12" text-anchor="end">Completed</text>
  <circle cx="395" cy="452" r="6" fill="#00FFFF" stroke="#000000" stroke-width="1.5" />
  <text x="380" y="456" fill="#FFFFFF" font-family="Arial, sans-serif" font-size="12" text-anchor="end">Array Element</text>
  <circle cx="395" cy="472" r="6" fill="#00FF00" stroke="#000000" stroke-width="1.5" />
  <text x="380" y="476" fill="#FFFFFF" font-family="Arial, sans-serif" font-size="12" text-anchor="end">Array Index</text>
  <rect x="483" y="203" width="370" height="140" rx="8" fill="#000000" opacity="0.3" />
  <rect x="480" y="200" width="370" height="140" rx="8" fill="none" stroke="#000000" stroke-width="2" />
  <rect x="480" y="200" width="370" height="32" rx="8" fill="#1B4F72" />
  <text x="490" y="222" fill="#FFFFFF" font-family="Arial, sans-serif" font-size="14" font-weight="bold">Create Trade Item Widget</text>
  <rect x="480" y="232" width="370" height="108" fill="#1E1E1E" />
  <circle cx="485" cy="252" r="6" fill="#FFFFFF" stroke="#000000" stroke-width="1.5" />
  <text x="500" y="256" fill="#FFFFFF" font-family="Arial, sans-serif" font-size="12" text-anchor="start">Exec</text>
  <circle cx="485" cy="272" r="6" fill="#00FFFF" stroke="#000000" stroke-width="1.5" />
  <text x="500" y="276" fill="#FFFFFF" font-family="Arial, sans-serif" font-size="12" text-anchor="start">Widget Class</text>
  <circle cx="485" cy="292" r="6" fill="#00FFFF" stroke="#000000" stroke-width="1.5" />
  <text x="500" y="296" fill="#FFFFFF" font-family="Arial, sans-serif" font-size="12" text-anchor="start">Item Data</text>
  <circle cx="845" cy="252" r="6" fill="#FFFFFF" stroke="#000000" stroke-width="1.5" />
  <text x="830" y="256" fill="#FFFFFF" font-family="Arial, sans-serif" font-size="12" text-anchor="end" />
  <circle cx="845" cy="272" r="6" fill="#00FFFF" stroke="#000000" stroke-width="1.5" />
  <text x="830" y="276" fill="#FFFFFF" font-family="Arial, sans-serif" font-size="12" text-anchor="end">Widget</text>
  <rect x="483" y="383" width="370" height="120" rx="8" fill="#000000" opacity="0.3" />
  <rect x="480" y="380" width="370" height="120" rx="8" fill="none" stroke="#000000" stroke-width="2" />
  <rect x="480" y="380" width="370" height="32" rx="8" fill="#1B4F72" />
  <text x="490" y="402" fill="#FFFFFF" font-family="Arial, sans-serif" font-size="14" font-weight="bold">Add Child to ScrollBox</text>
  <rect x="480" y="412" width="370" height="88" fill="#1E1E1E" />
  <circle cx="485" cy="432" r="6" fill="#FFFFFF" stroke="#000000" stroke-width="1.5" />
  <text x="500" y="436" fill="#FFFFFF" font-family="Arial, sans-serif" font-size="12" text-anchor="start">Exec</text>
  <circle cx="485" cy="452" r="6" fill="#00FFFF" stroke="#000000" stroke-width="1.5" />
  <text x="500" y="456" fill="#FFFFFF" font-family="Arial, sans-serif" font-size="12" text-anchor="start">Parent ScrollBox</text>
  <circle cx="485" cy="472" r="6" fill="#00FFFF" stroke="#000000" stroke-width="1.5" />
  <text x="500" y="476" fill="#FFFFFF" font-family="Arial, sans-serif" font-size="12" text-anchor="start">Child Widget</text>
  <circle cx="845" cy="432" r="6" fill="#FFFFFF" stroke="#000000" stroke-width="1.5" />
  <text x="830" y="436" fill="#FFFFFF" font-family="Arial, sans-serif" font-size="12" text-anchor="end" />
  <path d="M 370 117 C 210.0 117, 210.0 252, 50 252" stroke="#FFFFFF" stroke-width="3" fill="none" opacity="0.8" />
  <path d="M 400 252 C 225.0 252, 225.0 412, 50 412" stroke="#FFFFFF" stroke-width="3" fill="none" opacity="0.8" />
  <path d="M 400 412 C 440.0 412, 440.0 252, 480 252" stroke="#FFFFFF" stroke-width="3" fill="none" opacity="0.8" />
  <path d="M 850 252 C 665.0 252, 665.0 432, 480 432" stroke="#FFFFFF" stroke-width="3" fill="none" opacity="0.8" />
  <path d="M 850 432 C 625.0 432, 625.0 412, 400 412" stroke="#FFFFFF" stroke-width="3" fill="none" opacity="0.8" />
</svg>