<?xml version='1.0' encoding='utf-8'?>
<svg xmlns="http://www.w3.org/2000/svg" width="900" height="750" viewBox="0 0 900 750">
  <rect width="900" height="750" fill="#2D2D2D" />
  <rect x="303" y="23" width="300" height="80" rx="8" fill="#000000" opacity="0.3" />
  <rect x="300" y="20" width="300" height="80" rx="8" fill="none" stroke="#000000" stroke-width="2" />
  <rect x="300" y="20" width="300" height="32" rx="8" fill="#C80000" />
  <text x="310" y="42" fill="#FFFFFF" font-family="Arial, sans-serif" font-size="14" font-weight="bold">EVENT: Sell Button Clicked</text>
  <rect x="300" y="52" width="300" height="48" fill="#1E1E1E" />
  <circle cx="575" cy="77" r="6" fill="#FFFFFF" stroke="#000000" stroke-width="1.5" />
  <text x="560" y="81" fill="#FFFFFF" font-family="Arial, sans-serif" font-size="12" text-anchor="end" />
  <rect x="253" y="143" width="400" height="100" rx="8" fill="#000000" opacity="0.3" />
  <rect x="250" y="140" width="400" height="100" rx="8" fill="none" stroke="#000000" stroke-width="2" />
  <rect x="250" y="140" width="400" height="32" rx="8" fill="#006400" />
  <text x="260" y="162" fill="#FFFFFF" font-family="Arial, sans-serif" font-size="14" font-weight="bold">Get Value (QuantityBox)</text>
  <rect x="250" y="172" width="400" height="68" fill="#1E1E1E" />
  <circle cx="645" cy="192" r="6" fill="#00FF00" stroke="#000000" stroke-width="1.5" />
  <text x="630" y="196" fill="#FFFFFF" font-family="Arial, sans-serif" font-size="12" text-anchor="end">Return Value</text>
  <rect x="203" y="273" width="450" height="120" rx="8" fill="#000000" opacity="0.3" />
  <rect x="200" y="270" width="450" height="120" rx="8" fill="none" stroke="#000000" stroke-width="2" />
  <rect x="200" y="270" width="450" height="32" rx="8" fill="#1B4F72" />
  <text x="210" y="292" fill="#FFFFFF" font-family="Arial, sans-serif" font-size="14" font-weight="bold">Get Player Components</text>
  <rect x="200" y="302" width="450" height="88" fill="#1E1E1E" />
  <circle cx="205" cy="322" r="6" fill="#FFFFFF" stroke="#000000" stroke-width="1.5" />
  <text x="220" y="326" fill="#FFFFFF" font-family="Arial, sans-serif" font-size="12" text-anchor="start">Exec</text>
  <circle cx="645" cy="322" r="6" fill="#FFFFFF" stroke="#000000" stroke-width="1.5" />
  <text x="630" y="326" fill="#FFFFFF" font-family="Arial, sans-serif" font-size="12" text-anchor="end" />
  <circle cx="645" cy="342" r="6" fill="#00FFFF" stroke="#000000" stroke-width="1.5" />
  <text x="630" y="346" fill="#FFFFFF" font-family="Arial, sans-serif" font-size="12" text-anchor="end">Trader Component</text>
  <circle cx="645" cy="362" r="6" fill="#00FFFF" stroke="#000000" stroke-width="1.5" />
  <text x="630" y="366" fill="#FFFFFF" font-family="Arial, sans-serif" font-size="12" text-anchor="end">Cargo Component</text>
  <rect x="153" y="423" width="600" height="180" rx="8" fill="#000000" opacity="0.3" />
  <rect x="150" y="420" width="600" height="180" rx="8" fill="none" stroke="#000000" stroke-width="2" />
  <rect x="150" y="420" width="600" height="32" rx="8" fill="#1B4F72" />
  <text x="160" y="442" fill="#FFFFFF" font-family="Arial, sans-serif" font-size="14" font-weight="bold">Sell Item</text>
  <rect x="150" y="452" width="600" height="148" fill="#1E1E1E" />
  <circle cx="155" cy="472" r="6" fill="#FFFFFF" stroke="#000000" stroke-width="1.5" />
  <text x="170" y="476" fill="#FFFFFF" font-family="Arial, sans-serif" font-size="12" text-anchor="start">Exec</text>
  <circle cx="155" cy="492" r="6" fill="#00FFFF" stroke="#000000" stroke-width="1.5" />
  <text x="170" y="496" fill="#FFFFFF" font-family="Arial, sans-serif" font-size="12" text-anchor="start">Market Data</text>
  <circle cx="155" cy="512" r="6" fill="#00FFFF" stroke="#000000" stroke-width="1.5" />
  <text x="170" y="516" fill="#FFFFFF" font-family="Arial, sans-serif" font-size="12" text-anchor="start">Item Data</text>
  <circle cx="155" cy="532" r="6" fill="#00FF00" stroke="#000000" stroke-width="1.5" />
  <text x="170" y="536" fill="#FFFFFF" font-family="Arial, sans-serif" font-size="12" text-anchor="start">Quantity</text>
  <circle cx="155" cy="552" r="6" fill="#00FFFF" stroke="#000000" stroke-width="1.5" />
  <text x="170" y="556" fill="#FFFFFF" font-family="Arial, sans-serif" font-size="12" text-anchor="start">Cargo Component</text>
  <circle cx="745" cy="472" r="6" fill="#FFFFFF" stroke="#000000" stroke-width="1.5" />
  <text x="730" y="476" fill="#FFFFFF" font-family="Arial, sans-serif" font-size="12" text-anchor="end" />
  <circle cx="745" cy="492" r="6" fill="#DC143C" stroke="#000000" stroke-width="1.5" />
  <text x="730" y="496" fill="#FFFFFF" font-family="Arial, sans-serif" font-size="12" text-anchor="end">Success</text>
  <rect x="253" y="633" width="400" height="100" rx="8" fill="#000000" opacity="0.3" />
  <rect x="250" y="630" width="400" height="100" rx="8" fill="none" stroke="#000000" stroke-width="2" />
  <rect x="250" y="630" width="400" height="32" rx="8" fill="#FFFFFF" />
  <text x="260" y="652" fill="#FFFFFF" font-family="Arial, sans-serif" font-size="14" font-weight="bold">BRANCH: Sale Success?</text>
  <rect x="250" y="662" width="400" height="68" fill="#1E1E1E" />
  <circle cx="255" cy="682" r="6" fill="#FFFFFF" stroke="#000000" stroke-width="1.5" />
  <text x="270" y="686" fill="#FFFFFF" font-family="Arial, sans-serif" font-size="12" text-anchor="start">Exec</text>
  <circle cx="255" cy="702" r="6" fill="#DC143C" stroke="#000000" stroke-width="1.5" />
  <text x="270" y="706" fill="#FFFFFF" font-family="Arial, sans-serif" font-size="12" text-anchor="start">Condition</text>
  <circle cx="645" cy="682" r="6" fill="#FFFFFF" stroke="#000000" stroke-width="1.5" />
  <text x="630" y="686" fill="#FFFFFF" font-family="Arial, sans-serif" font-size="12" text-anchor="end">True: Play Success Sound</text>
  <circle cx="645" cy="702" r="6" fill="#FFFFFF" stroke="#000000" stroke-width="1.5" />
  <text x="630" y="706" fill="#FFFFFF" font-family="Arial, sans-serif" font-size="12" text-anchor="end">False: Play Error Sound</text>
  <path d="M 580 77 C 390.0 77, 390.0 322, 200 322" stroke="#FFFFFF" stroke-width="3" fill="none" opacity="0.8" />
  <path d="M 650 322 C 400.0 322, 400.0 472, 150 472" stroke="#FFFFFF" stroke-width="3" fill="none" opacity="0.8" />
  <path d="M 750 472 C 500.0 472, 500.0 682, 250 682" stroke="#FFFFFF" stroke-width="3" fill="none" opacity="0.8" />
</svg>