<?xml version='1.0' encoding='utf-8'?>
<svg xmlns="http://www.w3.org/2000/svg" width="750" height="480" viewBox="0 0 750 480">
  <rect width="750" height="480" fill="#2D2D2D" />
  <rect x="23" y="23" width="220" height="60" rx="8" fill="#000000" opacity="0.3" />
  <rect x="20" y="20" width="220" height="60" rx="8" fill="none" stroke="#000000" stroke-width="2" />
  <rect x="20" y="20" width="220" height="32" rx="8" fill="#C80000" />
  <text x="30" y="42" fill="#FFFFFF" font-family="Arial, sans-serif" font-size="14" font-weight="bold">EVENT: OnAddToCartClicked</text>
  <rect x="20" y="52" width="220" height="28" fill="#1E1E1E" />
  <circle cx="235" cy="72" r="6" fill="#FFFFFF" stroke="#000000" stroke-width="1.5" />
  <text x="220" y="76" fill="#FFFFFF" font-family="Arial, sans-serif" font-size="12" text-anchor="end" />
  <rect x="273" y="23" width="180" height="60" rx="8" fill="#000000" opacity="0.3" />
  <rect x="270" y="20" width="180" height="60" rx="8" fill="none" stroke="#000000" stroke-width="2" />
  <rect x="270" y="20" width="180" height="32" rx="8" fill="#1B4F72" />
  <text x="280" y="42" fill="#FFFFFF" font-family="Arial, sans-serif" font-size="14" font-weight="bold">Get Quantity</text>
  <rect x="270" y="52" width="180" height="28" fill="#1E1E1E" />
  <circle cx="275" cy="72" r="6" fill="#FFFFFF" stroke="#000000" stroke-width="1.5" />
  <text x="290" y="76" fill="#FFFFFF" font-family="Arial, sans-serif" font-size="12" text-anchor="start" />
  <circle cx="445" cy="72" r="6" fill="#00FF00" stroke="#000000" stroke-width="1.5" />
  <text x="430" y="76" fill="#FFFFFF" font-family="Arial, sans-serif" font-size="12" text-anchor="end">Quantity</text>
  <rect x="23" y="123" width="200" height="80" rx="8" fill="#000000" opacity="0.3" />
  <rect x="20" y="120" width="200" height="80" rx="8" fill="none" stroke="#000000" stroke-width="2" />
  <rect x="20" y="120" width="200" height="32" rx="8" fill="#006400" />
  <text x="30" y="142" fill="#FFFFFF" font-family="Arial, sans-serif" font-size="14" font-weight="bold">Validate Quantity</text>
  <rect x="20" y="152" width="200" height="48" fill="#1E1E1E" />
  <circle cx="25" cy="167" r="6" fill="#00FF00" stroke="#000000" stroke-width="1.5" />
  <text x="40" y="171" fill="#FFFFFF" font-family="Arial, sans-serif" font-size="12" text-anchor="start">Quantity</text>
  <circle cx="25" cy="187" r="6" fill="#00FF00" stroke="#000000" stroke-width="1.5" />
  <text x="40" y="191" fill="#FFFFFF" font-family="Arial, sans-serif" font-size="12" text-anchor="start">Stock</text>
  <circle cx="215" cy="187" r="6" fill="#DC143C" stroke="#000000" stroke-width="1.5" />
  <text x="200" y="191" fill="#FFFFFF" font-family="Arial, sans-serif" font-size="12" text-anchor="end">Is Valid</text>
  <rect x="253" y="123" width="220" height="100" rx="8" fill="#000000" opacity="0.3" />
  <rect x="250" y="120" width="220" height="100" rx="8" fill="none" stroke="#000000" stroke-width="2" />
  <rect x="250" y="120" width="220" height="32" rx="8" fill="#FFFFFF" />
  <text x="260" y="142" fill="#000000" font-family="Arial, sans-serif" font-size="14" font-weight="bold">BRANCH: Is Valid?</text>
  <rect x="250" y="152" width="220" height="68" fill="#1E1E1E" />
  <circle cx="255" cy="167" r="6" fill="#FFFFFF" stroke="#000000" stroke-width="1.5" />
  <text x="270" y="171" fill="#FFFFFF" font-family="Arial, sans-serif" font-size="12" text-anchor="start" />
  <circle cx="255" cy="187" r="6" fill="#DC143C" stroke="#000000" stroke-width="1.5" />
  <text x="270" y="191" fill="#FFFFFF" font-family="Arial, sans-serif" font-size="12" text-anchor="start">Condition</text>
  <circle cx="465" cy="167" r="6" fill="#FFFFFF" stroke="#000000" stroke-width="1.5" />
  <text x="450" y="171" fill="#FFFFFF" font-family="Arial, sans-serif" font-size="12" text-anchor="end">True</text>
  <circle cx="465" cy="187" r="6" fill="#FFFFFF" stroke="#000000" stroke-width="1.5" />
  <text x="450" y="191" fill="#FFFFFF" font-family="Arial, sans-serif" font-size="12" text-anchor="end">False</text>
  <rect x="503" y="123" width="220" height="80" rx="8" fill="#000000" opacity="0.3" />
  <rect x="500" y="120" width="220" height="80" rx="8" fill="none" stroke="#000000" stroke-width="2" />
  <rect x="500" y="120" width="220" height="32" rx="8" fill="#1B4F72" />
  <text x="510" y="142" fill="#FFFFFF" font-family="Arial, sans-serif" font-size="14" font-weight="bold">Add Item To Cart</text>
  <rect x="500" y="152" width="220" height="48" fill="#1E1E1E" />
  <circle cx="505" cy="167" r="6" fill="#FFFFFF" stroke="#000000" stroke-width="1.5" />
  <text x="520" y="171" fill="#FFFFFF" font-family="Arial, sans-serif" font-size="12" text-anchor="start" />
  <circle cx="505" cy="187" r="6" fill="#00FF00" stroke="#000000" stroke-width="1.5" />
  <text x="520" y="191" fill="#FFFFFF" font-family="Arial, sans-serif" font-size="12" text-anchor="start">Quantity</text>
  <circle cx="715" cy="167" r="6" fill="#FFFFFF" stroke="#000000" stroke-width="1.5" />
  <text x="700" y="171" fill="#FFFFFF" font-family="Arial, sans-serif" font-size="12" text-anchor="end" />
  <rect x="503" y="243" width="180" height="60" rx="8" fill="#000000" opacity="0.3" />
  <rect x="500" y="240" width="180" height="60" rx="8" fill="none" stroke="#000000" stroke-width="2" />
  <rect x="500" y="240" width="180" height="32" rx="8" fill="#1B4F72" />
  <text x="510" y="262" fill="#FFFFFF" font-family="Arial, sans-serif" font-size="14" font-weight="bold">Show Error</text>
  <rect x="500" y="272" width="180" height="28" fill="#1E1E1E" />
  <circle cx="505" cy="292" r="6" fill="#FFFFFF" stroke="#000000" stroke-width="1.5" />
  <text x="520" y="296" fill="#FFFFFF" font-family="Arial, sans-serif" font-size="12" text-anchor="start" />
  <rect x="273" y="283" width="200" height="60" rx="8" fill="#000000" opacity="0.3" />
  <rect x="270" y="280" width="200" height="60" rx="8" fill="none" stroke="#000000" stroke-width="2" />
  <rect x="270" y="280" width="200" height="32" rx="8" fill="#1B4F72" />
  <text x="280" y="302" fill="#FFFFFF" font-family="Arial, sans-serif" font-size="14" font-weight="bold">Update Visual State</text>
  <rect x="270" y="312" width="200" height="28" fill="#1E1E1E" />
  <circle cx="275" cy="332" r="6" fill="#FFFFFF" stroke="#000000" stroke-width="1.5" />
  <text x="290" y="336" fill="#FFFFFF" font-family="Arial, sans-serif" font-size="12" text-anchor="start" />
  <circle cx="465" cy="332" r="6" fill="#FFFFFF" stroke="#000000" stroke-width="1.5" />
  <text x="450" y="336" fill="#FFFFFF" font-family="Arial, sans-serif" font-size="12" text-anchor="end" />
  <rect x="23" y="363" width="180" height="60" rx="8" fill="#000000" opacity="0.3" />
  <rect x="20" y="360" width="180" height="60" rx="8" fill="none" stroke="#000000" stroke-width="2" />
  <rect x="20" y="360" width="180" height="32" rx="8" fill="#1B4F72" />
  <text x="30" y="382" fill="#FFFFFF" font-family="Arial, sans-serif" font-size="14" font-weight="bold">Reset Quantity</text>
  <rect x="20" y="392" width="180" height="28" fill="#1E1E1E" />
  <circle cx="25" cy="412" r="6" fill="#FFFFFF" stroke="#000000" stroke-width="1.5" />
  <text x="40" y="416" fill="#FFFFFF" font-family="Arial, sans-serif" font-size="12" text-anchor="start" />
  <path d="M 240 72 C 255.0 72, 255.0 72, 270 72" stroke="#FFFFFF" stroke-width="3" fill="none" opacity="0.8" />
  <path d="M 220 187 C 235.0 187, 235.0 187, 250 187" stroke="#FFFFFF" stroke-width="3" fill="none" opacity="0.8" />
  <path d="M 470 167 C 485.0 167, 485.0 167, 500 167" stroke="#FFFFFF" stroke-width="3" fill="none" opacity="0.8" />
  <path d="M 470 187 C 485.0 187, 485.0 292, 500 292" stroke="#FFFFFF" stroke-width="3" fill="none" opacity="0.8" />
  <path d="M 720 167 C 495.0 167, 495.0 332, 270 332" stroke="#FFFFFF" stroke-width="3" fill="none" opacity="0.8" />
  <path d="M 470 332 C 245.0 332, 245.0 412, 20 412" stroke="#FFFFFF" stroke-width="3" fill="none" opacity="0.8" />
</svg>