<?xml version='1.0' encoding='utf-8'?>
<svg xmlns="http://www.w3.org/2000/svg" width="950" height="550" viewBox="0 0 950 550">
  <rect width="950" height="550" fill="#2D2D2D" />
  <text x="475" y="30" fill="#FFFFFF" font-family="Arial, sans-serif" font-size="18" font-weight="bold" text-anchor="middle">BP_SpaceStation - Undock Ship Function</text>
  <rect x="53" y="63" width="380" height="100" rx="8" fill="#000000" opacity="0.3" />
  <rect x="50" y="60" width="380" height="100" rx="8" fill="none" stroke="#000000" stroke-width="2" />
  <rect x="50" y="60" width="380" height="32" rx="8" fill="#1B4F72" />
  <text x="60" y="82" fill="#FFFFFF" font-family="Arial, sans-serif" font-size="14" font-weight="bold">FUNCTION: Undock Ship</text>
  <rect x="50" y="92" width="380" height="68" fill="#1E1E1E" />
  <circle cx="55" cy="107" r="6" fill="#FFFFFF" stroke="#000000" stroke-width="1.5" />
  <text x="70" y="111" fill="#FFFFFF" font-family="Arial, sans-serif" font-size="12" text-anchor="start">Exec</text>
  <circle cx="55" cy="127" r="6" fill="#00FFFF" stroke="#000000" stroke-width="1.5" />
  <text x="70" y="131" fill="#FFFFFF" font-family="Arial, sans-serif" font-size="12" text-anchor="start">Ship: ASpaceship</text>
  <rect x="483" y="63" width="400" height="100" rx="8" fill="#000000" opacity="0.3" />
  <rect x="480" y="60" width="400" height="100" rx="8" fill="none" stroke="#000000" stroke-width="2" />
  <rect x="480" y="60" width="400" height="32" rx="8" fill="#1B4F72" />
  <text x="490" y="82" fill="#FFFFFF" font-family="Arial, sans-serif" font-size="14" font-weight="bold">Find Ship Docking Point</text>
  <rect x="480" y="92" width="400" height="68" fill="#1E1E1E" />
  <circle cx="485" cy="107" r="6" fill="#FFFFFF" stroke="#000000" stroke-width="1.5" />
  <text x="500" y="111" fill="#FFFFFF" font-family="Arial, sans-serif" font-size="12" text-anchor="start">Exec</text>
  <circle cx="485" cy="127" r="6" fill="#00FFFF" stroke="#000000" stroke-width="1.5" />
  <text x="500" y="131" fill="#FFFFFF" font-family="Arial, sans-serif" font-size="12" text-anchor="start">Ship</text>
  <circle cx="875" cy="107" r="6" fill="#FFFFFF" stroke="#000000" stroke-width="1.5" />
  <text x="860" y="111" fill="#FFFFFF" font-family="Arial, sans-serif" font-size="12" text-anchor="end" />
  <circle cx="875" cy="127" r="6" fill="#00FF00" stroke="#000000" stroke-width="1.5" />
  <text x="860" y="131" fill="#FFFFFF" font-family="Arial, sans-serif" font-size="12" text-anchor="end">Point Index</text>
  <rect x="53" y="213" width="380" height="100" rx="8" fill="#000000" opacity="0.3" />
  <rect x="50" y="210" width="380" height="100" rx="8" fill="none" stroke="#000000" stroke-width="2" />
  <rect x="50" y="210" width="380" height="32" rx="8" fill="#1B4F72" />
  <text x="60" y="232" fill="#FFFFFF" font-family="Arial, sans-serif" font-size="14" font-weight="bold">Clear Docking Point</text>
  <rect x="50" y="242" width="380" height="68" fill="#1E1E1E" />
  <circle cx="55" cy="257" r="6" fill="#FFFFFF" stroke="#000000" stroke-width="1.5" />
  <text x="70" y="261" fill="#FFFFFF" font-family="Arial, sans-serif" font-size="12" text-anchor="start">Exec</text>
  <circle cx="55" cy="277" r="6" fill="#00FF00" stroke="#000000" stroke-width="1.5" />
  <text x="70" y="281" fill="#FFFFFF" font-family="Arial, sans-serif" font-size="12" text-anchor="start">Point Index</text>
  <circle cx="425" cy="257" r="6" fill="#FFFFFF" stroke="#000000" stroke-width="1.5" />
  <text x="410" y="261" fill="#FFFFFF" font-family="Arial, sans-serif" font-size="12" text-anchor="end" />
  <rect x="483" y="213" width="400" height="100" rx="8" fill="#000000" opacity="0.3" />
  <rect x="480" y="210" width="400" height="100" rx="8" fill="none" stroke="#000000" stroke-width="2" />
  <rect x="480" y="210" width="400" height="32" rx="8" fill="#1B4F72" />
  <text x="490" y="232" fill="#FFFFFF" font-family="Arial, sans-serif" font-size="14" font-weight="bold">Move Ship Away From Station</text>
  <rect x="480" y="242" width="400" height="68" fill="#1E1E1E" />
  <circle cx="485" cy="257" r="6" fill="#FFFFFF" stroke="#000000" stroke-width="1.5" />
  <text x="500" y="261" fill="#FFFFFF" font-family="Arial, sans-serif" font-size="12" text-anchor="start">Exec</text>
  <circle cx="485" cy="277" r="6" fill="#00FFFF" stroke="#000000" stroke-width="1.5" />
  <text x="500" y="281" fill="#FFFFFF" font-family="Arial, sans-serif" font-size="12" text-anchor="start">Ship</text>
  <circle cx="875" cy="257" r="6" fill="#FFFFFF" stroke="#000000" stroke-width="1.5" />
  <text x="860" y="261" fill="#FFFFFF" font-family="Arial, sans-serif" font-size="12" text-anchor="end" />
  <rect x="53" y="363" width="380" height="100" rx="8" fill="#000000" opacity="0.3" />
  <rect x="50" y="360" width="380" height="100" rx="8" fill="none" stroke="#000000" stroke-width="2" />
  <rect x="50" y="360" width="380" height="32" rx="8" fill="#1B4F72" />
  <text x="60" y="382" fill="#FFFFFF" font-family="Arial, sans-serif" font-size="14" font-weight="bold">Enable Ship Input</text>
  <rect x="50" y="392" width="380" height="68" fill="#1E1E1E" />
  <circle cx="55" cy="407" r="6" fill="#FFFFFF" stroke="#000000" stroke-width="1.5" />
  <text x="70" y="411" fill="#FFFFFF" font-family="Arial, sans-serif" font-size="12" text-anchor="start">Exec</text>
  <circle cx="55" cy="427" r="6" fill="#00FFFF" stroke="#000000" stroke-width="1.5" />
  <text x="70" y="431" fill="#FFFFFF" font-family="Arial, sans-serif" font-size="12" text-anchor="start">Ship</text>
  <circle cx="425" cy="407" r="6" fill="#FFFFFF" stroke="#000000" stroke-width="1.5" />
  <text x="410" y="411" fill="#FFFFFF" font-family="Arial, sans-serif" font-size="12" text-anchor="end" />
  <rect x="483" y="363" width="400" height="80" rx="8" fill="#000000" opacity="0.3" />
  <rect x="480" y="360" width="400" height="80" rx="8" fill="none" stroke="#000000" stroke-width="2" />
  <rect x="480" y="360" width="400" height="32" rx="8" fill="#1B4F72" />
  <text x="490" y="382" fill="#FFFFFF" font-family="Arial, sans-serif" font-size="14" font-weight="bold">Close Trading UI</text>
  <rect x="480" y="392" width="400" height="48" fill="#1E1E1E" />
  <circle cx="485" cy="407" r="6" fill="#FFFFFF" stroke="#000000" stroke-width="1.5" />
  <text x="500" y="411" fill="#FFFFFF" font-family="Arial, sans-serif" font-size="12" text-anchor="start">Exec</text>
  <circle cx="875" cy="407" r="6" fill="#FFFFFF" stroke="#000000" stroke-width="1.5" />
  <text x="860" y="411" fill="#FFFFFF" font-family="Arial, sans-serif" font-size="12" text-anchor="end" />
  <path d="M 430 107 C 455.0 107, 455.0 107, 480 107" stroke="#FFFFFF" stroke-width="3" fill="none" opacity="0.8" />
  <path d="M 880 107 C 465.0 107, 465.0 257, 50 257" stroke="#FFFFFF" stroke-width="3" fill="none" opacity="0.8" />
  <path d="M 430 257 C 455.0 257, 455.0 257, 480 257" stroke="#FFFFFF" stroke-width="3" fill="none" opacity="0.8" />
  <path d="M 880 257 C 465.0 257, 465.0 407, 50 407" stroke="#FFFFFF" stroke-width="3" fill="none" opacity="0.8" />
  <path d="M 430 407 C 455.0 407, 455.0 407, 480 407" stroke="#FFFFFF" stroke-width="3" fill="none" opacity="0.8" />
  <text x="680" y="145" fill="#CCCCCC" font-family="Arial, sans-serif" font-size="11" text-anchor="middle">1. Find docking point</text>
  <text x="240" y="295" fill="#CCCCCC" font-family="Arial, sans-serif" font-size="11" text-anchor="middle">2. Clear point</text>
  <text x="680" y="295" fill="#CCCCCC" font-family="Arial, sans-serif" font-size="11" text-anchor="middle">3. Move ship away</text>
  <text x="240" y="445" fill="#CCCCCC" font-family="Arial, sans-serif" font-size="11" text-anchor="middle">4. Enable controls</text>
  <text x="680" y="445" fill="#CCCCCC" font-family="Arial, sans-serif" font-size="11" text-anchor="middle">5. Close UI</text>
</svg>